<?xml version="1.0" standalone="no"?>
<!DOCTYPE svg PUBLIC "-//W3C//DTD SVG 1.1//EN" "http://www.w3.org/Graphics/SVG/1.1/DTD/svg11.dtd" >
<svg xmlns="http://www.w3.org/2000/svg" xmlns:xlink="http://www.w3.org/1999/xlink" version="1.1">
<metadata></metadata>
<defs>
<font id="real_miamiregular" horiz-adv-x="864" >
<font-face units-per-em="2048" ascent="1638" descent="-410" />
<missing-glyph horiz-adv-x="595" />
<glyph horiz-adv-x="0" />
<glyph horiz-adv-x="682" />
<glyph horiz-adv-x="0" />
<glyph horiz-adv-x="0" />
<glyph unicode="&#xd;" horiz-adv-x="595" />
<glyph unicode=" "  horiz-adv-x="595" />
<glyph unicode="&#x09;" horiz-adv-x="595" />
<glyph unicode="&#xa0;" horiz-adv-x="595" />
<glyph unicode="!" horiz-adv-x="667" d="M25.5 84.5q-18.5 38.5 4 78.5t68.5 40q47 0 65.5 -36.5t-1.5 -74.5t-66 -41q-52 -5 -70.5 33.5zM57 496q23 231 122 497.5t233 419.5q40 47 88 74q44 23 88.5 -11.5t27.5 -80.5q-9 -28 -28 -54q-128 -191 -248.5 -454t-175.5 -500q0 -1 -2.5 -13t-3.5 -14.5t-5 -11 t-8.5 -10.5t-12.5 -4.5t-19 -1.5q-73 9 -56 164z" />
<glyph unicode="&#x22;" horiz-adv-x="706" d="M275 1355.5q-9 15.5 1 49.5q23 65 66 172q7 16 11 23.5t15.5 14t26.5 3.5q27 -6 39 -22.5t11.5 -35.5t-9.5 -40q-39 -81 -86 -140q-20 -27 -43 -33.5t-32 9zM435 1355.5q-9 15.5 1 49.5q23 65 66 172q7 16 11 23.5t15.5 14t26.5 3.5q27 -6 39 -22.5t11.5 -35.5t-9.5 -40 q-39 -81 -86 -140q-20 -27 -43 -33.5t-32 9z" />
<glyph unicode="#" horiz-adv-x="1134" d="M0 283q32 30 75.5 42.5t95 19.5t83.5 20q8 38 26 114.5t27 116.5q-39 -6 -104.5 -16.5t-91.5 -14.5q-64 -11 -80 9q-13 16 28 33q19 8 47 14q193 42 213 47q15 46 43 137.5t45.5 144t48 123t64.5 125.5q10 16 28 27.5t32 13.5q33 1 47.5 -25.5t3.5 -58.5q-9 -24 -34 -93 t-35.5 -97.5t-28.5 -81t-31 -96.5t-25 -91q141 20 180 23q11 37 42.5 152.5t54.5 177.5q8 24 25.5 41.5t34.5 21.5t32.5 -2t20 -29.5t-4.5 -60.5q-57 -235 -71 -283q20 1 50 5.5l50 7.5t44.5 1.5t43.5 -10.5q22 -10 31.5 -20t9.5 -29q-21 -2 -109 -10t-139 -14 q-13 -43 -35 -132t-26 -106q24 1 89 11t94.5 6.5t31.5 -29.5q-23 -25 -62 -29q-130 -14 -166 -22q-19 -64 -48 -207.5t-46 -202.5q-8 -32 -30.5 -39t-40.5 10.5t-15 46.5q3 45 11 100t14.5 87.5t21.5 100.5t19 87q-149 -23 -181 -28q-11 -5 -22 -17.5t-12 -25.5 q-21 -93 -64 -334q-5 -42 -28 -58t-46.5 -2t-31.5 47q-11 30 -6 89t12 96.5t20 95.5t17 86q-24 -2 -80 -10t-82 -9.5t-80 3.5zM393 383q33 4 201 27q33 129 55 241q-34 -6 -194 -26q-5 -21 -27.5 -105.5t-34.5 -136.5z" />
<glyph unicode="$" horiz-adv-x="966" d="M-2 371.5q4 55.5 25 111.5q26 74 96 90q-41 -72 -59.5 -146t-11.5 -140t58.5 -109t145.5 -45q46 240 151 617q-133 67 -196 127q-61 58 -74 121t16 117t84 102.5t123.5 80.5t141.5 48.5t133 9.5q34 113 86 196q13 22 26.5 31.5t23.5 8t18.5 -8t13 -15t4.5 -14.5 q-43 -62 -111 -206q46 -10 69.5 -16.5t57 -21t52 -36.5t26.5 -53q14 -56 -9.5 -115.5t-76.5 -97.5q-26 16 -6 43q58 92 14 162t-157 67q-20 -53 -70 -186t-72 -193q14 -9 55 -33t59 -36t48 -33.5t51.5 -43t40.5 -46.5q56 -75 69 -154.5t-12 -148t-77.5 -130.5t-124 -106 t-155.5 -70.5t-167 -27.5q-2 -10 -41 -224q-10 -3 -20.5 8t-9.5 31q1 28 6 98t6 83q-65 9 -115 37t-80 69t-44.5 91.5t-10.5 106zM317 135q79 9 150.5 48.5t121 94.5t73.5 121.5t16.5 128.5t-60.5 116t-147 83q-28 -48 -76.5 -248t-77.5 -344zM332.5 1057.5 q7.5 -85.5 126.5 -125.5q16 38 66.5 172t70.5 180q-107 -2 -189 -71.5t-74.5 -155z" />
<glyph unicode="%" horiz-adv-x="1198" d="M6 948q-17 85 12 178q61 159 199 254q36 27 73.5 40t78 5.5t67.5 -43.5q21 -23 18 -44.5t-32 -47.5q-138 -122 -201 -250q-57 -118 -51 -150q6 -34 66 -7q104 49 180 151t76 207q4 46 14 52t72 1q116 -14 235 -8t199 45q53 27 100 -8q52 -38 29 -82q-12 -31 -54 -76 q-662 -711 -860 -1194q-10 -29 -34.5 -36.5t-55.5 6.5q-32 14 -45 30q-18 20 -19.5 56.5t8.5 74t30.5 86.5t37.5 83t38 74.5t26 49.5q265 518 664 846h-316q-69 -319 -268 -403q-92 -43 -178.5 -11t-108.5 121zM641 319q32 77 84 127t117 50q41 0 77.5 -22t42.5 -52.5 t-36 -61.5q-93 -52 -141 -169q-34 -81 -21 -123q10 -35 46 3q7 7 13 15q75 100 95 250q15 -1 24.5 -5.5t13 -14.5t4.5 -18t1 -24q0 -63 -23.5 -135.5t-73.5 -115.5q-85 -57 -178 8q-126 94 -45 288z" />
<glyph unicode="&#x26;" horiz-adv-x="1380" d="M14 470.5q25 87.5 83 169t137.5 144t168.5 101.5q-116 34 -160 93t-14 128q50 128 189 216t304.5 116.5t313.5 -0.5q56 -11 108.5 -33t98 -56t67 -85t7.5 -109q-15 -83 -121 -74q32 147 -18 223t-162 89q-107 15 -244 -15.5t-258 -106t-160 -175.5q-30 -75 34.5 -118 t211.5 -22q49 3 74.5 -18t20.5 -50t-33 -48q-16 -9 -56 -28t-59 -30q-71 -40 -141.5 -98t-132.5 -129t-99.5 -154.5t-34.5 -160.5q14 -90 87 -126.5t182 -29.5q109 6 227.5 39t228 87.5t195 138t117.5 181.5q22 83 -23 134.5t-131 42.5q-148 -6 -272 -123q-61 -78 8 -92 q127 -11 215 4q16 5 33 2.5t26 -25.5q-41 -21 -124.5 -31t-153.5 2q-51 12 -71.5 42.5t-13 66t30 69.5t52.5 56q49 36 115 59.5t134.5 26.5t126.5 -13.5t94.5 -67t34.5 -128.5q-3 -83 -40 -162.5t-98.5 -144t-143 -118t-171.5 -89t-186.5 -51.5t-185.5 -10t-170 39t-139 92 q-82 82 -108 177t-1 182.5z" />
<glyph unicode="'" horiz-adv-x="538" d="M275 1355.5q-9 15.5 1 49.5q23 65 66 172q7 16 11 23.5t15.5 14t26.5 3.5q27 -6 39 -22.5t11.5 -35.5t-9.5 -40q-39 -81 -86 -140q-20 -27 -43 -33.5t-32 9z" />
<glyph unicode="(" horiz-adv-x="421" d="M-4.5 390q0.5 148 36 303.5t102.5 297.5t151.5 266t179.5 216q185 185 291 104q24 -23 23 -50t-27 -46q-239 -163 -406 -450t-209 -589q-13 -108 -15 -203.5t23 -192t78 -175.5q10 -14 10.5 -24t-7.5 -10.5t-21 7.5q-105 111 -157.5 254.5t-52 291.5z" />
<glyph unicode=")" horiz-adv-x="653" d="M-167 -158q4 11 26 29q136 116 226 257t155 314q76 198 95.5 394.5t-23 366.5t-144.5 278q-16 19 -2.5 45.5t49.5 50.5q148 81 236 -104q47 -92 66.5 -216t12.5 -266t-52.5 -297.5t-122 -303.5t-203.5 -291.5t-289 -254.5q-32 -16 -30 -2z" />
<glyph unicode="*" horiz-adv-x="714" d="M14 1167.5q-18 28.5 17 57.5q30 21 97.5 71t104.5 74q-8 9 -65 75.5t-88 106.5q37 8 63.5 -2.5t59.5 -40.5q16 -20 69 -73q14 26 41 78.5t41 78.5q2 4 12.5 21.5t16.5 26t17 23t20.5 19.5t20.5 7.5t23 -5.5t23 -26q-18 -31 -65.5 -120.5t-61.5 -113.5q117 93 183 127 q26 13 41 8t30 -32q-18 -13 -117 -73t-153 -107q75 -85 176 -209q-45 -22 -78 4q-29 25 -80 79t-59 62q-15 -37 -54.5 -134.5t-62.5 -150.5q-64 8 -49 68q8 29 38 102.5t38 100.5q-10 -7 -65.5 -52.5t-75.5 -58.5q-40 -20 -58 8.5z" />
<glyph unicode="+" horiz-adv-x="997" d="M29.5 552.5q-17.5 25.5 2.5 51t64 29.5q37 3 70 4t53.5 1t57.5 -0.5t63 -0.5q10 39 26.5 98t22.5 80q6 23 11 36t15.5 31.5t26.5 24.5t37 0q31 -6 47.5 -31t10.5 -59q-3 -18 -15.5 -78.5t-17.5 -95.5q67 -4 252 -18q53 -4 70 -30t-6 -50.5t-68 -24.5q-45 -3 -141.5 -6.5 t-143.5 -9.5q-25 -155 -51 -236q-14 -42 -45 -44t-54.5 25t-21.5 58q-2 30 0.5 51.5t9.5 64t12 87.5q-43 4 -75 6.5t-72 4t-74 3.5q-49 3 -66.5 28.5z" />
<glyph unicode="," horiz-adv-x="352" d="M35 33q24 58 76 196q7 16 11 23.5t15.5 14t26.5 3.5q27 -6 39 -22.5t11.5 -35.5t-9.5 -40q-15 -30 -41 -89.5t-41 -88.5q-10 -17 -27 -20.5t-32.5 3.5t-24.5 23t-4 33z" />
<glyph unicode="-" d="M63 500q-1 26 18.5 40.5t55.5 14.5q83 4 170.5 5t186 0.5t151.5 0.5h8h9.5t9 -0.5t9 -1.5t8 -2.5t8 -4t6.5 -6t6 -9t4 -11.5q2 -26 -14 -42.5t-44 -16.5q-101 1 -280 -1.5t-248 -2.5q-2 0 -12.5 -0.5t-15 0t-13 2.5t-12.5 5.5t-7.5 11t-3.5 18.5z" />
<glyph unicode="." horiz-adv-x="358" d="M96 150q-16 37 4 70.5t64 29.5q52 -6 65 -44t-11 -71.5t-62 -28.5q-44 7 -60 44z" />
<glyph unicode="/" d="M58 -222q-14 30 1 70q284 871 748 1778q13 26 32.5 38.5t36 9.5t30.5 -14.5t15.5 -34t-8.5 -48.5q-17 -38 -90 -206.5t-93.5 -215.5t-84 -194t-89.5 -208t-80 -188t-85 -204t-75 -185.5t-81 -203t-73 -189.5q-16 -42 -54 -41q-35 1 -50 36z" />
<glyph unicode="0" horiz-adv-x="862" d="M-10.5 299q-14.5 140 18 287.5t92.5 289t145 252t173 160.5q60 36 121 49.5t121.5 -2.5t101.5 -67q28 -47 24 -64q-4 -16 -6 -33.5t-2.5 -28t3 -33t4.5 -27t7.5 -32.5t6.5 -30q18 -104 -5 -232.5t-74 -249t-115 -229t-132 -188.5q-36 -41 -75.5 -72.5t-84.5 -52.5 t-87.5 -20.5t-84.5 22.5q-36 20 -71 70q-66 91 -80.5 231zM145 143.5q25 -71.5 77.5 -83.5t123 30t137.5 125q149 187 226.5 447t19.5 471q-34 -15 -41 -19q-179 -91 -343 -313t-200 -443q-25 -143 0 -214.5z" />
<glyph unicode="1" horiz-adv-x="661" d="M23 270q21 131 68 253t135.5 294t111.5 223q-12 -8 -45 -31t-48 -33t-42 -26t-53 -28q-42 -20 -60 6q-14 21 5 40q7 7 18 11q106 42 245.5 152.5t231.5 222.5q29 27 63.5 28t58 -18.5t33.5 -51.5t-10 -71q-14 -27 -77 -148t-78.5 -150.5t-67.5 -131.5t-70 -140 t-59 -123.5t-61 -133.5t-49.5 -119.5t-51 -132t-41.5 -123.5q-14 -43 -40 -49.5t-50 16.5q-97 76 -67 264z" />
<glyph unicode="2" horiz-adv-x="1163" d="M-21.5 80.5q-1.5 59.5 23.5 97.5q60 105 151 204.5t188.5 180.5t194.5 156.5t195.5 165.5t165.5 176q26 34 48 79t34 94t-8.5 83.5t-77.5 38.5q-78 5 -183.5 -57.5t-187 -153.5t-98.5 -166q-7 -26 -27 -33t-38 4.5t-19 32.5q-3 101 90 198.5t222.5 156t242.5 63.5 q65 2 111.5 -13.5t71 -44t34 -69t6.5 -84t-16 -94.5q-28 -108 -82.5 -207.5t-135 -191t-148.5 -157.5t-173 -159.5t-157 -144.5q-92 -90 -138 -142.5t-26 -52.5q64 0 220.5 -2t223.5 -2h8.5h10t9 -1t9.5 -3.5t7 -7t6 -11.5t3 -16q-12 0 -35.5 -1t-33.5 -1h-143.5t-137 -1.5 t-130.5 -11t-124 -26.5q-62 -22 -123 35q-32 29 -33.5 88.5z" />
<glyph unicode="3" horiz-adv-x="1095" d="M5 -19q-17 29 10 42q13 7 36 6q177 -3 299 49q111 48 175.5 109.5t74.5 120.5t-41.5 114t-161.5 90q-85 25 -137 69t-65 96t20 113t113 117q61 42 174.5 96t206 106.5t143.5 111.5q74 76 -14 102q-77 23 -208 0q-41 -7 -73 -18q-237 -76 -405 -271q-20 -20 -33 0 q-16 24 4 60q6 12 16 22q126 136 314.5 212.5t377.5 74.5q63 -1 113 -27.5t76 -67t25.5 -94t-31.5 -106.5q-50 -88 -168 -176q-121 -84 -375 -244q-29 -19 -46.5 -33t-28.5 -25t-10 -21t4.5 -17t20 -16.5t30.5 -16t43 -20.5t51 -25q27 -13 43 -27q61 -46 79.5 -104.5 t-1.5 -114.5t-61 -109.5t-93 -93t-103 -61.5q-162 -67 -342 -55q-35 3 -52 32z" />
<glyph unicode="4" horiz-adv-x="1224" d="M-5 365q-1 13 5 25t12 21.5t18.5 20t20.5 16.5t21 15q242 167 453 379.5t421 478.5q5 6 20.5 27t24.5 30q39 41 67 38.5t44 -27.5t14 -54q-8 -79 -76 -183t-166 -205t-218 -204t-229.5 -183.5t-203.5 -139.5q-69 -45 -44 -59q20 -12 87 6q171 47 414 63q39 90 57 130 t54 104.5t71 109.5q24 32 50.5 59.5t61.5 52t67.5 33.5t67.5 -3.5t62 -51.5q46 -62 13 -119q-43 -75 -84.5 -169t-66.5 -161.5t-65 -182t-61 -169.5q-46 -138 -159 -106q-31 13 -55 29t-40 32t-25.5 38t-14.5 40t-4.5 44t3 44.5t9.5 48t12 47t14.5 48.5t14.5 47 q-326 -7 -521 -86q-98 -32 -139 49q-6 14 -7 27z" />
<glyph unicode="5" horiz-adv-x="1157" d="M-4 321q14 23 34 8q12 -9 21 -32q45 -106 118.5 -156.5t160 -42.5t178.5 70q67 47 126 123.5t98 163t61 174.5t17.5 167t-34.5 132q-43 77 -140.5 77t-213.5 -65t-225 -174q-28 -28 -72 -31q-27 -1 -42 7.5t-17 24.5t2.5 33.5t13.5 35.5q30 59 96.5 173.5t97.5 174.5 q19 36 36.5 56.5t37.5 27t35.5 6.5t44.5 -2.5t51 -1.5q319 15 637 53q22 2 31 -5t6 -32q-118 -27 -235 -40.5t-300.5 -25t-226.5 -14.5q-24 -42 -90 -168.5t-78 -148.5q92 66 172 106q77 38 162 49.5t162.5 -2t146 -52.5t116.5 -96.5t71 -139t12 -174.5q-17 -136 -99.5 -264 t-209 -217t-266.5 -113q-127 -22 -222.5 5t-156.5 90t-113 169q-22 41 -4 71z" />
<glyph unicode="6" horiz-adv-x="921" d="M-2 487q21 225 128 431.5t275 328.5q66 47 134.5 74t138.5 33t135 -24.5t111 -98.5q46 -67 -5 -137q-2 -3 -6 -7q-29 -35 -35 -34q-4 1 -12 21q-6 19 -12 32q-11 23 -28.5 25t-57.5 -17q-115 -60 -199.5 -152.5t-165.5 -222.5q146 -37 195 -143q33 -90 10 -207.5 t-84.5 -231.5t-128.5 -165q-58 -44 -116 -46t-104 31t-81.5 79.5t-58.5 101.5q-51 126 -33 329zM213 141q17 -64 42.5 -85t56.5 -5.5t75 62.5q33 40 65 93t58.5 115t35 122t-2 111t-56.5 86t-125 42q-84 -125 -132 -275t-17 -266z" />
<glyph unicode="7" horiz-adv-x="1026" d="M4 164q12 71 43 144t90 179t70 129q-14 -1 -68 -6t-73 -6q-38 -3 -48 17q-9 18 21 28q7 3 16 4q27 5 93.5 9.5t93.5 9.5q109 172 205.5 298t218.5 240q-100 5 -318.5 -52t-286.5 -128q-49 41 43 98q64 39 152.5 67t154.5 39.5t175 26.5t153 23q14 5 51 20.5t59 22.5 t52 11.5t53 -7t39 -37.5q18 -29 16.5 -50t-24.5 -50q-44 -53 -136.5 -160t-161.5 -190.5t-130 -167.5q121 -8 240 -27q16 0 15 -6q-1 -10 -28 -18l-16 -2q-27 -1 -80 3t-85.5 4.5t-70 -14.5t-59.5 -49q-49 -78 -125.5 -197.5t-135 -211t-108.5 -172.5q-23 -33 -52.5 -30.5 t-39.5 38.5q-25 73 -8 170z" />
<glyph unicode="8" horiz-adv-x="890" d="M1.5 222q-7.5 66 12.5 136q12 36 28 69.5t45 72.5t41.5 55t54.5 63t46 52q-46 103 -48.5 211t34 201.5t112.5 169.5t181 118q46 20 99.5 22t101 -11t86 -40.5t59.5 -63.5t16.5 -83.5t-39.5 -97.5q-48 -73 -138 -143.5t-192 -141t-155 -125.5q62 -62 101 -107t80 -106 t60.5 -126t18.5 -136q-6 -204 -203 -248q-72 -17 -142.5 -4t-123 50.5t-90.5 92t-45.5 120.5zM86 303q-30 -130 19.5 -187.5t130 -18t129.5 152.5q59 177 -97 346q-10 -14 -57 -69.5t-79 -109.5t-46 -114zM259.5 1007.5q-33.5 -141.5 45.5 -262.5q33 26 140 104t161 126 q36 33 58.5 56.5t60 67.5t52.5 83t5 69q-18 51 -67.5 68.5t-107.5 5.5t-110 -34t-83 -46q-121 -96 -154.5 -237.5z" />
<glyph unicode="9" horiz-adv-x="913" d="M-4.5 793.5q0.5 39.5 10.5 74.5q35 128 120 243.5t198 176.5q206 119 372 -6q32 26 55.5 39t54.5 12t60 -26q47 -47 15 -107q-220 -258 -426 -613.5t-248 -588.5q-5 -30 -23 -39t-39 -1.5t-41 24.5q-36 27 -33.5 94.5t27 152t63 174t75.5 161t65 112.5q-14 -7 -42.5 -22 t-46 -23t-36.5 -13q-50 -16 -84.5 -5.5t-56 38t-31 65.5t-9 77.5zM56.5 724q9.5 -34 31.5 -46t54.5 -4.5t64.5 24t61 39.5q55 42 109 106t91.5 121.5t89.5 131.5t95 123q-63 34 -129.5 41t-120.5 -15q-126 -51 -215 -167.5t-127 -254.5q-14 -65 -4.5 -99z" />
<glyph unicode=":" horiz-adv-x="473" d="M100 211q-3 21 2.5 41t24.5 32.5t45 10.5q52 -6 65 -44t-11 -71t-62 -28q-27 4 -44 21t-20 38zM172 655q-3 21 2.5 41t24.5 32.5t45 10.5q52 -6 65 -44t-11 -71t-62 -28q-27 4 -44 21t-20 38z" />
<glyph unicode=";" horiz-adv-x="473" d="M35 117q24 58 76 196q7 16 11 23.5t15.5 14t26.5 3.5q27 -6 39 -22.5t11.5 -35.5t-9.5 -40q-15 -30 -41 -89.5t-41 -88.5q-10 -17 -27 -20.5t-32.5 3.5t-24.5 23t-4 33zM172 655q-3 21 2.5 41t24.5 32.5t45 10.5q52 -6 65 -44t-11 -71t-62 -28q-27 4 -44 21t-20 38z" />
<glyph unicode="=" horiz-adv-x="1019" d="M41 360q-1 24 10.5 40t33.5 22.5t39.5 9t39.5 2.5q192 8 270.5 9t249.5 -3q35 -2 56.5 -16t24 -33t-4.5 -37t-27 -30.5t-45 -12.5q-127 0 -261 1t-261 1h-15h-17.5t-17.5 0.5t-18.5 2t-16.5 3.5t-15.5 5.5t-11.5 8t-9 11.5t-4 16zM123 668q-8 42 26 62t76 20 q56 5 165.5 2.5t126.5 -2.5t118.5 -6.5t142.5 -8.5q31 -4 52 -19.5t20 -45.5q0 -10 -3.5 -18t-10 -13.5t-13.5 -9.5t-18.5 -6t-20.5 -3.5t-23.5 -1.5h-24h-25h-23.5q-67 1 -455 11h-18h-21t-18.5 1t-19.5 3.5t-14.5 7t-12.5 11.5t-6 16z" />
<glyph unicode="?" horiz-adv-x="1130" d="M68 1042q19 81 79 160.5t139.5 140.5t165 106.5t164.5 70.5q63 19 126.5 21t120.5 -13.5t103.5 -54t71.5 -95.5q9 -19 9 -41t-6 -42.5t-19 -44t-26.5 -42t-33 -42t-34 -39t-34 -36t-28.5 -30.5q-9 -9 -66 -65t-69 -68.5t-61.5 -63t-64 -68t-55 -64t-57 -71.5t-47 -68.5 t-47 -77t-36 -75.5t-33.5 -84q-11 -30 -28.5 -34.5t-29.5 12t-8 35.5q15 71 67 165.5t123 188.5t134 169t123 138q111 117 163 224q59 122 -21 130q-38 3 -108 -22q-92 -37 -202.5 -108.5t-207.5 -170.5t-118 -184q-18 -68 -88 -35q-42 23 -58.5 71.5t-2.5 106.5zM186 79 q-13 41 12 73q27 33 76 22q30 -7 39.5 -41t-8.5 -66t-55 -32q-49 0 -64 44z" />
<glyph unicode="@" horiz-adv-x="1363" d="M2 197q-29 156 0.5 310.5t108.5 282t191 227t254.5 155.5t291.5 57q105 2 187 -24t133 -73.5t82.5 -114.5t36 -147.5t-8.5 -171.5q-26 -146 -100.5 -267t-188.5 -187q-67 -37 -126 -39t-98.5 27t-55.5 90t0 145q9 40 4 57q-161 -232 -277 -213q-52 9 -75.5 56.5 t-17 107.5t33.5 123.5t67 103.5q59 59 159.5 67t162.5 -40q20 35 68.5 48t89 -7t37.5 -68q-2 -33 -25 -84q-4 -11 -22 -51t-29 -69.5t-20 -65.5t-3 -61.5t29 -36.5q31 -17 82 20.5t88 84t57 81.5q57 97 86 191q32 94 25 177.5t-42 147.5t-107 102t-171 40q-284 17 -514 -181 q-128 -109 -215 -262t-108 -315q-17 -125 13 -239t99 -191.5t172.5 -110t233.5 7.5q40 13 84.5 33.5t74 35.5t80.5 49.5t67.5 45.5t75.5 54.5t66 48.5q15 9 24 12.5t20.5 -0.5t23.5 -19q-134 -112 -248.5 -189t-236.5 -122q-105 -29 -207.5 -13t-186 62t-144 128t-81.5 184z M449 365q86 34 159 114.5t94 169.5q-64 4 -127 -38t-99 -110.5t-27 -135.5z" />
<glyph unicode="A" horiz-adv-x="1292" d="M-4 698q-1 6 -1 12q0 27 17 50q26 38 62 40h8q30 0 54 -16q26 -18 50 -47q25 -31 56 -110q17 0 49.5 -0.5t60.5 -0.5t54 1q37 7 61 35q219 228 506 490.5t387 322.5q18 18 39 18q11 -1 21 -5q32 -14 30 -46q-4 -28 -15 -58.5t-30 -70t-25 -53.5q-143 -348 -295 -920 q-10 -41 -81 -360q-9 -44 -36 -62q-16 -11 -37 -11q-14 0 -30 5q-45 17 -72.5 49t-35.5 75t-8 80.5t6 84.5q14 94 52 217.5t79 218.5q-55 -7 -228.5 -33.5t-222.5 -32.5h-2q-194 -228 -283 -317q-4 -6 -14 -18.5t-15.5 -19.5t-14.5 -16.5t-17 -15.5q-30 4 -30 23q0 9 7 22 q90 135 90 280q0 32 -4 64q-7 2 -26 7t-26.5 7.5l-22.5 7.5t-23.5 9t-20.5 9.5t-21.5 12.5t-18.5 15q-29 24 -33 57zM45 696q3 -28 43 -47q51 -20 81 -20q8 0 15 2q-3 23 -17 50.5t-28 39.5q-22 22 -45 22q-12 0 -24 -6q-29 -13 -25 -41zM240 401q94 113 141 164h-137 q0 -38 -4 -164zM535 641h3q36 1 172 21q142 22 226 40q157 393 291 601q-248 -183 -692 -662z" />
<glyph unicode="B" horiz-adv-x="1216" d="M-31 125q9 45 34 121q25 74 38 122q9 34 9 78q0 17 -1 35q-5 65 -41 121q-29 58 -31 119v10q0 56 20 107q22 56 55.5 108t82.5 100.5t93.5 86t95.5 73.5q339 230 694 279q43 6 88 7q56 0 116 -10q106 -18 190 -72t97 -132q2 -15 2 -30q1 -37 -13 -72q-20 -49 -53.5 -84.5 t-83.5 -69t-92.5 -53.5t-90.5 -39q-16 -6 -77 -26q-247 -82 -316 -132q-36 -27 -36 -50q0 -21 29 -38q32 -19 111.5 -53t118.5 -60q83 -61 86 -137q0 -6 1 -12q0 -49 -22 -93q-24 -49 -68.5 -84.5t-96 -64t-111.5 -48t-107.5 -31.5t-91.5 -19q-187 -34 -412 -57 q-29 -45 -39 -156q-1 -53 -30 -62q-7 -2 -16 -2q-26 0 -64 19q-81 42 -81 178q0 54 13 123zM40 650q8 -64 48 -126q96 300 274 463q42 36 84 36h9q47 -4 82 -50q18 -26 18 -58q0 -34 -20 -75q-116 -222 -170 -346q-56 -126 -160 -388q45 7 135 19t145.5 21t106.5 20 q68 14 112 26t101 33.5t99.5 52.5t72.5 72q37 49 37 89q0 46 -49 81q-48 33 -151.5 76t-147.5 74q-42 28 -46 70v7q0 39 33 76q53 58 124 102.5t172.5 93t144.5 73.5q163 90 177 156q1 6 1 11q0 38 -62 51q-15 3 -34 5q-27 2 -55 2q-175 -1 -369 -61q-224 -70 -422 -187 q-67 -41 -121 -86.5t-96 -100.5q-41 -55 -61 -111q-14 -40 -14 -84q0 -18 2 -37z" />
<glyph unicode="C" horiz-adv-x="985" d="M-2 352q-1 17 -1 34q0 228 126 488q175 344 444 508q172 113 360 113h19q108 -5 166 -83q42 -56 41 -130q0 -29 -6 -61q-13 -66 -42 -125.5t-75 -113t-84 -91t-98 -88.5l-8 -4q-9 -4 -11.5 -4.5t-9 -1t-11 3t-7.5 10.5q21 22 76 77.5t82 86t64 79.5t56 97t25 100 q1 12 1 23q0 48 -20 90q-21 50 -77 54h-14q-50 0 -104 -26q-62 -30 -113.5 -62.5t-80.5 -59.5q-99 -93 -193 -217t-174 -268q-81 -144 -121 -302q-28 -109 -28 -208q0 -44 6 -85q13 -98 70 -152q40 -37 100 -37q26 0 56 7q52 12 109.5 44t104.5 69.5t104 93t93.5 96t87 97.5 t72.5 81q25 34 41 23q15 -10 1 -36q-4 -10 -13 -19q-402 -515 -662 -551h-11q-77 0 -141 39q-69 42 -110.5 110.5t-64.5 146.5t-25 154z" />
<glyph unicode="D" horiz-adv-x="1665" d="M-108 96.5q7 22.5 34 18.5q10 -3 58.5 -28t62.5 -34q-1 15 -1 32q0 133 77 372q12 32 12 46.5t-12 43.5q-76 177 -76 308q1 3 1 5q2 134 93 256q147 205 389 304q194 80 397 80q49 0 99 -5q119 -12 225.5 -58.5t186 -116.5t132.5 -162q52 -92 70 -191q7 -42 8 -87 q0 -59 -14 -122q-24 -110 -90 -211q-82 -124 -207.5 -223t-264.5 -163t-299.5 -107.5t-308 -63t-296.5 -23.5q-2 -11 0 -27t5 -27.5t-2 -22.5t-21 -15q-21 -6 -40 9.5t-28 31.5t-23 47q-6 12 -49 29q-24 9 -108 71q-17 11 -10 33.5zM97 788q10 -98 69 -204q44 91 77 153 t80 136t102 133.5t120 107.5q27 22 58 22q7 0 15 -2q39 -6 63 -35.5t34 -67.5q3 -12 3 -23q0 -26 -16 -50q-53 -49 -112 -113t-133 -162.5t-132.5 -198t-101 -220t-47.5 -229.5q285 3 515.5 72t426.5 217q91 70 161.5 169t103.5 211q28 93 28 182q1 18 -1 36 q-6 106 -73.5 199.5t-191.5 148.5q-82 36 -183 50q-67 10 -134 10q-35 0 -70 -2q-103 -8 -204 -36.5t-187.5 -73.5t-150.5 -111q-64 -65 -96 -143q-25 -59 -26 -131q1 -22 3 -45z" />
<glyph unicode="E" horiz-adv-x="1277" d="M16 -27q-36 71 -36 147q0 134 114 283q105 136 244.5 222t329.5 157q48 17 48 28q0 15 -83 21q-113 9 -163 81q-28 40 -28 92q0 40 17 88q36 102 123.5 179t190.5 117.5t216 53.5q30 4 60 4q76 0 148 -24q101 -32 149 -104q23 -34 23 -77q0 -47 -28 -104 q-38 -73 -95.5 -144t-100.5 -92q-21 -10 -40 -10q-14 0 -27 5q-32 13 -9 42q7 10 31 40t36.5 46.5t31.5 44t32.5 53.5t22.5 52q8 26 9 46t-6 32t-17.5 20t-28 10t-33.5 2t-38.5 -4.5t-39.5 -8t-38.5 -11t-33.5 -11.5t-28 -10q-198 -75 -336 -213q-32 -35 -46 -60t-15 -39 t15 -25t31.5 -16t46.5 -12.5t48 -13.5q48 -17 59.5 -44.5t-8 -54.5t-42.5 -48t-44 -31q-146 -85 -244 -195q-276 -315 -276 -453v-8q5 -74 94 -73h18q97 7 240 84q410 222 690 409q8 5 23.5 15.5t28.5 19t26 15.5q13 8 26 2.5t19 -23.5q-23 -23 -37 -31q-75 -45 -268 -168 t-362.5 -223.5t-309.5 -165.5q-63 -30 -124 -34h-14q-53 -1 -103 25q-56 30 -89 95z" />
<glyph unicode="F" horiz-adv-x="1161" d="M-11.5 532.5q5.5 12.5 23.5 20.5q149 32 203 41q-29 68 -94.5 190t-91.5 185q-10 28 -10 56q0 69 61 140q85 78 206 138t257 96.5t267 57.5t269 30q53 2 120 3h11q63 0 136 -10q80 -12 151 -29.5t133 -53.5t94 -84q32 -51 33 -106q0 -6 -1 -12q-4 -61 -42 -103 q-21 -24 -51 -9q-26 13 -20 35q3 9 12 17q27 49 27 89q0 84 -116 132q-114 46 -292 46q-30 0 -61 -1q-78 -3 -138 -15q-129 -131 -280 -344.5t-254 -418.5q46 1 151 5q94 4 166 4h16q77 0 144 -9q14 0 33 -31q-82 -3 -258 -9.5t-271 -9.5q-75 -145 -134.5 -315.5 t-78.5 -316.5q-9 -48 -41 -68q-16 -10 -36 -10t-44 10q-113 46 -113 161q0 9 1 19q3 47 10 89.5t23 96.5t24.5 81.5t34.5 101.5t35 100q-29 -6 -98 -15t-91 -9q-16 2 -23.5 12t-2 22.5zM82 973q13 -47 41 -102.5t69 -125.5t60 -106q123 252 198 376.5t203 305.5 q-162 -37 -272.5 -76t-202.5 -104q-98 -66 -98 -144q0 -12 2 -24z" />
<glyph unicode="G" horiz-adv-x="1249" d="M4 625q25 108 86.5 222.5t148 217t193 192t222 146.5t235.5 81q54 11 107 11q64 0 126 -16q182 -45 221 -195q6 -26 6 -51t-6 -49q-10 -41 -24 -38q-14 4 -13 39q0 6 1 11q-3 106 -75 165q-57 46 -132 46q-22 0 -45 -4q-118 -20 -232.5 -86.5t-206 -159.5t-169.5 -207 t-132 -227.5t-86 -222.5q-21 -68 -21 -119q0 -21 4 -39q12 -63 50 -92q28 -22 71 -22q12 0 26 2q60 8 126 53q79 50 168 133t150 153t150 175t132 153q118 125 160 125q6 0 11 -3q12 -8 12 -35q0 -51 -41 -167q-123 -337 -181 -469q-79 -176 -161 -299h164q13 1 65.5 7.5 t79.5 6.5q-25 -25 -60.5 -38.5t-82.5 -15.5q-27 -1 -48 -1h-27q-28 2 -75 6q-49 0 -84 -41q-5 -5 -34.5 -36t-38.5 -39.5t-37 -34.5t-41.5 -35.5t-40 -27.5t-46 -24.5t-44.5 -13t-50 -6.5q-70 0 -99 46q-19 30 -19 65q0 18 5 39q16 57 60 92q23 20 51.5 32t64.5 16t60 5h23 q19 0 45 -1q44 -1 59 -1q30 -2 49 6.5t39 32.5q47 73 87.5 148.5t78.5 165.5t59 143.5t60 159.5q47 126 48 142q1 12 -7 9q-19 -5 -119 -115q-32 -38 -92 -111.5t-99 -120t-94 -105.5t-110.5 -105t-114.5 -82q-134 -84 -241 -84q-135 0 -226 135q-64 104 -64 230 q0 61 15 127zM421 -155q17 -33 56 -33q16 0 35 5q42 11 92 46q68 46 154 145q-27 0 -70 1.5t-74 1.5t-57 -3q-87 -8 -126 -73q-18 -29 -18 -56q0 -18 8 -34z" />
<glyph unicode="H" horiz-adv-x="1513" d="M-45 854q12 133 108.5 261.5t251.5 223.5q85 53 195 97q50 20 100 34t114 24q22 3 41 4q39 0 71 -12q50 -18 71 -67q12 -27 13.5 -54.5t-8.5 -60.5t-16 -48.5t-23 -50.5q-3 -7 -5 -11q-42 -86 -123 -241.5t-112 -215.5l-35 -69q492 82 698 106q281 564 433 746 q20 23 40 23q8 0 17 -4q23 -12 15 -37q-3 -7 -7 -13q-81 -115 -214 -336.5t-196 -376.5l99 12q5 1 10 1t13 -6.5t20 -20.5q-26 -2 -164 -17q-174 -357 -211 -808q-9 -1 -16 -1q-39 0 -40 37q0 4 1 9q2 147 53 376.5t129 374.5l-721 -123q-64 -111 -135 -300t-96 -353 q-6 -44 -13 -52q-11 -13 -43 -7q-49 10 -84 45.5t-48 80t-19 92.5q-3 21 -3 40q0 25 5 45q15 129 96 352l-164 -57q-22 -7 -33 1t-6.5 21.5t21.5 22.5l205 71q156 318 368 600q90 117 90 165q0 34 -44 35h-2q-81 0 -253 -95q-22 -12 -43 -25q-151 -88 -253.5 -224 t-102.5 -280q-29 9 -38.5 23.5t-6.5 42.5z" />
<glyph unicode="I" horiz-adv-x="958" d="M-30 -74q-3 18 21 26q9 3 21 3q645 86 867 106q21 0 32 -1.5t26 -11.5t24 -30q-74 -4 -154.5 -11t-141.5 -13.5t-151 -18.5t-136 -19t-147 -22t-137 -20q-9 -1 -40 -4.5t-48 -3.5q-33 0 -36 20zM49 1012q43 95 134 173t204 128t221 81t213 46q15 3 48.5 8.5t52.5 9.5 t45 14.5t45 26.5q18 17 46 18.5t52 -12.5q23 -14 70 -14q19 0 41 2q408 32 462 37q18 0 28 -1.5t22 -13.5t16 -36q-265 -3 -557 -52q-529 -653 -737 -1337q-2 -7 -4.5 -17t-3.5 -14.5t-3.5 -11t-6 -9t-8.5 -5t-13 -2.5h-8q-36 1 -56 25q-22 28 -30 75q-7 45 -7 94 q0 72 15 151q25 134 63.5 238.5t119 250t125 215.5t131.5 200q43 65 62 94h-7q-69 0 -155 -20q-91 -20 -183.5 -61t-170.5 -94t-127 -124t-49 -145q-17 -2 -30 -2q-34 0 -50 14q-14 13 -14 38q0 14 4 32z" />
<glyph unicode="J" horiz-adv-x="1402" d="M3 133q0 79 65 129q68 49 157 90.5t154 62t177 53t161 48.5q47 13 44 -3q-2 -14 -29 -25q-4 -2 -9 -3q-41 -14 -117.5 -35.5t-134.5 -39t-125.5 -42t-123.5 -56.5t-95 -70q-33 -39 -44 -71t-2 -52t29.5 -33t51 -18t63 -4.5t64.5 6.5q193 31 387 186q219 193 346.5 454 t151.5 547v8q0 61 -29 98q-31 39 -78 49q-29 6 -64 6q-21 0 -45 -2q-61 -6 -110 -19.5t-94 -30.5q-392 -151 -727 -506q-32 15 -4 43q80 92 197 189.5t250.5 183.5t278.5 145t265 68q17 1 33 1q51 0 94 -14q56 -20 90.5 -57.5t59.5 -88t33.5 -107t12.5 -115.5q1 -19 1 -38 q0 -38 -5 -73q-20 -186 -80 -356.5t-158 -316t-243 -250.5t-322 -148q-83 -20 -162 -20q-1 -1 -3 -1q-77 0 -153 24q-78 24 -138 73q-71 50 -71 131z" />
<glyph unicode="K" horiz-adv-x="1488" d="M4 922q2 53 21 100q37 88 118 173.5t181 151.5t201.5 115.5t195.5 79.5q45 14 84 14q33 0 62 -10q64 -22 86 -78q11 -28 10 -63q0 -36 -11 -78q-43 -109 -99 -214.5t-137 -242t-114 -196.5q63 41 211.5 140.5t227 150t201.5 124.5t233.5 128t224.5 98q29 11 49 11 q17 0 26 -8q14 -14 -12 -32q-292 -112 -593 -292.5t-539 -379.5q173 -233 296 -359q248 -254 421 -254q29 0 55 7q13 3 23 -3.5t10 -16.5q0 -21 -47 -25q-13 -1 -26 -1q-234 0 -493 251q-134 130 -290 352q-217 -191 -383 -651q-14 -43 -44 -43q-11 0 -24 6q-39 17 -62 43 t-28 62q-3 24 -3 48v24q2 36 17 81.5t27.5 79.5t31.5 80t27 70q16 41 16 76q0 32 -14 59q-39 78 -57 116t-44 103.5t-32 107.5q-5 30 -5 66q0 14 1 29zM45 858v-9q-1 -24 7 -55q10 -37 16.5 -60t26 -64t29.5 -60.5t34 -64.5q4 -7 15.5 -26t19.5 -34q196 371 376 621 q14 19 45 60q121 160 145 217q9 23 9 38q0 30 -36 30h-5q-56 -2 -192 -67q-131 -58 -242.5 -143.5t-179.5 -183.5q-24 -35 -40 -68t-21 -68t-7 -63z" />
<glyph unicode="L" horiz-adv-x="612" d="M-4 326q7 154 69 340t158.5 357t232 310.5t275.5 196.5q33 13 67 13q30 0 61 -10q54 -19 55 -57q0 -24 -25 -49q-128 -101 -264.5 -294.5t-234.5 -386t-157 -359.5q-12 -40 -22 -79t-18 -89t-9 -93v-9q0 -39 8 -75q9 -42 29 -70.5t58 -43.5q28 -11 66 -11q12 0 26 1 q94 16 270 90q90 46 135 66q25 11 37 7.5t6.5 -17.5t-26.5 -27q-208 -120 -385 -168q-47 -10 -89 -10q-39 0 -73 9q-70 19 -119.5 62t-80.5 108q-30 66 -42 138q-9 54 -9 111q0 19 1 39z" />
<glyph unicode="M" horiz-adv-x="2256" d="M-39 582q8 112 58 226t128.5 214t172 185.5t198.5 156.5q104 70 214 103q70 21 129 21q33 0 61 -6q80 -18 100 -104q4 -18 4 -40q0 -80 -57 -210q-77 -179 -176 -352q-123 -221 -377 -651q-23 -39 -23 -49q0 -3 3 -3t8 3q35 22 128 133q17 20 25 31q14 18 114.5 155.5 t157.5 206.5q212 262 476 412q36 22 64 23q3 0 7 -1q31 -3 47 -26.5t27 -56.5q10 -30 10 -63v-6q-1 -36 -4 -61q-32 -176 -133 -436q-19 -50 -18 -66q0 -8 4 -8q11 0 78 87q22 29 32 40q49 60 125.5 159.5t129.5 167.5t127.5 156.5t137 152.5t140 127.5t153.5 107.5 q66 39 105 49q20 6 37 5q28 1 47 -15q24 -20 24 -59q0 -10 -2 -21q-3 -21 -7.5 -42.5t-9 -38t-13.5 -40t-13.5 -36t-17 -38t-16.5 -34.5t-19 -38t-18 -36q-25 -51 -77 -154q-80 -160 -120.5 -248.5t-93.5 -227.5t-70 -260q-10 -69 -10 -136q0 -52 6 -103q1 -8 1 -14 q0 -34 -22 -43q-21 -8 -35 14q-7 12 -7 29q-1 23 -1 46q0 72 8 145q10 96 26 178t47 176.5t59 166t73 167.5t77.5 160.5t84 166.5t82.5 164q25 49 25 78q0 12 -4 20q-7 13 -25 13q-22 0 -61 -19q-67 -35 -139.5 -93.5t-135 -120t-135 -147.5t-124 -152.5t-117.5 -160.5 t-101 -146t-88 -132q-33 -51 -96.5 -141t-87.5 -125q-55 -78 -124 -82h-6q-65 0 -104 82q-32 62 -32 146q0 38 6 81q13 59 33 114t51.5 117t50 96t63.5 108t58 95q42 73 42 99q0 14 -12 14q-4 0 -10 -2q-48 -13 -194 -141q-121 -110 -230.5 -252.5t-230 -322t-191.5 -271.5 q-34 -50 -76 -78q-37 -25 -79 -25h-9q-48 3 -88 43q-50 51 -62 135q-5 33 -5 66q-1 52 11 106q20 88 48 164.5t62 137.5q150 261 440 667q110 154 110 211q0 16 -8 24q-9 9 -27 9q-60 0 -223 -96q-191 -115 -330.5 -312t-209.5 -423q-10 -34 -20.5 -31t-10.5 35z" />
<glyph unicode="N" horiz-adv-x="1546" d="M-3 626q8 81 34.5 157.5t74 153.5t103.5 144.5t123 130.5q30 28 63 56t81 64.5t94 63t96 50.5q51 22 95 26q10 1 20 1q33 0 63 -9q38 -12 66 -53.5t40 -110.5q3 -21 3 -44q0 -31 -6 -65q-11 -59 -40.5 -124t-51.5 -105.5t-57 -100.5q-11 -19 -16 -27q-43 -71 -93.5 -151 t-110.5 -176t-95 -151q-64 -111 -63 -146q0 -8 3 -13q2 -2 6 -2q22 0 89 73q106 117 239.5 291.5t258 329.5t241.5 268q95 95 170 148q61 41 113 56q29 8 53 9q19 0 35 -6q34 -12 54 -44q18 -29 17 -75v-10q-2 -54 -26 -121q-38 -92 -103.5 -216t-121 -227.5t-108.5 -217 t-83 -225.5q-28 -105 -28 -201v-17q1 -42 -19 -60t-42.5 0.5t-24.5 63.5v18q0 100 39 231q43 143 95.5 254t139.5 283t125 257q70 151 74 206v7q0 41 -32 41q-26 0 -73 -27q-109 -76 -210.5 -172.5t-191.5 -208t-161 -209t-163.5 -228t-155.5 -212.5q-36 -46 -59 -73.5 t-67.5 -75t-80.5 -67.5t-80 -34q-17 -5 -32 -5q-26 0 -50 14q-40 22 -74 75q-52 88 -52 190q0 116 67 250q51 105 134.5 241.5t144 226t157.5 229.5q27 41 27 59q0 15 -18 15q-4 0 -9 -1q-62 -10 -215 -115q-20 -13 -29 -20q-78 -61 -146 -138t-125 -169q-56 -94 -76 -186 q-10 -46 -9 -91q0 -47 10 -94q11 -42 -7 -41q-14 0 -25 18q-2 4 -3 7q-17 56 -17 116q0 20 2 41z" />
<glyph unicode="O" horiz-adv-x="1312" d="M-2 272q0 120 38.5 218.5t121.5 216.5q1 2 3.5 8t3 8t2 7t1 7.5t-0.5 7.5t-2 9.5t-5 9.5q-57 104 -57 203q0 155 139 297q203 206 524 241q35 4 68 4q175 0 302 -98q151 -116 171 -328q-1 -150 -37 -269.5t-103 -233.5q-212 -356 -559 -547q-96 -54 -204 -74 q-47 -9 -94 -9q-60 0 -117 15q-68 21 -113.5 69.5t-63.5 108t-18 129.5zM203 776q27 40 57.5 77t73.5 79.5t85 72t91 44.5q31 9 59 9q17 0 33 -3q93 -13 121 -94q5 -12 5.5 -23t-3.5 -21t-8.5 -17.5t-15 -16.5t-18.5 -14.5t-21 -14.5q-64 -52 -95.5 -78.5t-75 -69 t-75.5 -81.5q80 -13 162 -13q54 0 109 6q137 14 251 72q0 -15 -4 -26t-14.5 -18.5t-16.5 -10t-20 -8.5q-70 -28 -135.5 -42t-135 -14t-112 3.5t-121.5 13.5q-100 -146 -133 -211q-56 -123 -56 -198q0 -41 18 -69q41 -63 136 -64q20 0 40 3q126 15 261 103 q202 135 367.5 351.5t218.5 422.5q17 75 17 146v8q-1 75 -28 143t-70 119.5t-109.5 84t-147.5 37.5q-31 2 -62 2q-320 0 -532 -221q-71 -70 -107 -144q-36 -73 -36 -156q0 -85 47 -169z" />
<glyph unicode="P" horiz-adv-x="1320" d="M-6 1075q17 113 172 219q172 124 413 184q223 56 431 56h34q78 -3 151.5 -20.5t141 -50.5t110.5 -82t60 -117q7 -26 7 -54q0 -46 -17 -98q-62 -173 -285 -317q-38 -26 -82 -50.5t-78 -42.5t-88 -40t-81.5 -33t-90.5 -32.5t-82.5 -27.5t-91 -28.5t-83.5 -26.5 q-48 -14 -88.5 -89t-62.5 -168.5t-34 -171t-12 -114.5q-5 -32 -22.5 -49t-40.5 -17t-50 7q-72 21 -112.5 78t-46.5 133q-1 15 -1 31q0 82 26 186q31 124 85.5 246t100 211.5t88.5 160.5q-100 -27 -142 -32q-26 -3 -49 -3q-78 0 -126 34q-55 38 -55 100q0 9 1 18zM39 1059 q-1 -6 -1 -12q0 -33 26 -55q30 -26 96 -29h5q61 -1 125 21q66 22 108 49t106 71t96 63q32 16 63 16q9 1 17 -1q38 -6 70 -33q30 -30 30 -57q0 -24 -20 -58q-11 -22 -37 -61q-108 -170 -188 -379q26 10 124 46.5t138 53t114.5 48t131.5 62.5t110 66q181 128 238 260 q17 53 17 95v11q-2 46 -30 82t-64 60.5t-85 42.5q-131 40 -287 40q-116 0 -246 -22q-304 -52 -495 -177q-153 -97 -162 -203z" />
<glyph unicode="Q" horiz-adv-x="1181" d="M10 421q12 97 47 179q3 8 11.5 28.5t13 31.5t11 28t10.5 32t6 30q-4 32 -4 64q0 88 30 176q41 119 125 224q100 124 249 209.5t301 98.5q19 2 37 2q129 0 230 -84q56 -48 88 -116t41 -138q4 -39 4 -82q0 -32 -2 -67q-7 -80 -22.5 -147t-38.5 -136q-67 -208 -198.5 -396.5 t-291.5 -316.5q27 -76 88 -133.5t127.5 -85t133.5 -35.5q-38 -12 -80 -13h-3q-41 0 -87 18q-47 17 -89.5 45.5t-81 75t-63.5 103.5q-17 -6 -50.5 -21t-51.5 -22q-82 -33 -159 -33q-49 0 -97 13q-98 28 -157 104.5t-73 171.5q-9 53 -9 107q0 42 5 85zM154 782 q96 149 196 230.5t219 101.5q29 6 62.5 2t58.5 -21t38.5 -38.5t3.5 -50.5t-46 -56q-205 -159 -346 -420q-2 -8 -8 -22t-8 -19q117 -52 258 -52q15 0 30 1q25 1 37 -4.5t11 -13t-1 -14.5q-25 -135 -25 -230q0 -33 3 -61q142 118 259 294t185 357q32 86 50.5 168t22.5 170 q1 14 1 27q0 74 -21 141q-26 80 -83 137q-69 70 -176 74h-17q-98 0 -196 -43q-107 -47 -203 -118t-158 -148q-147 -185 -147 -392zM240 186q2 -58 25 -100.5t63 -62.5q24 -13 58 -13q20 0 44 5q62 12 139 59q10 6 15.5 17.5t6 17.5t0 25t-0.5 22q0 130 20 247q-32 -4 -64 -4 q-120 0 -241 54l1 1l-1 -1l-1 -1l-1 -1l-2 -2q-33 -68 -49 -137q-13 -59 -13 -110q0 -9 1 -16z" />
<glyph unicode="R" horiz-adv-x="1478" d="M-70 1067q44 140 285 254q373 180 871 180h53q50 0 108 -6.5t123 -21.5t122 -38t106 -55.5t75 -76t29 -97.5v-9q0 -51 -33 -112q-85 -174 -330 -305q-69 -37 -143 -66.5t-132.5 -49.5t-144 -37.5t-134.5 -26t-149.5 -19t-143 -14t-158.5 -12.5q122 -149 289 -256 t340 -166t387 -96q-9 -21 -24.5 -27t-47.5 -2q-612 107 -975 500q-98 -237 -127 -531q-3 -35 -21 -49t-46 -6q-49 11 -74 50.5t-27 90.5q-2 34 -2 67q0 402 266 800q-6 -2 -25.5 -7.5t-26 -7t-23 -6t-24.5 -6.5t-22 -5t-24 -4t-22 -2t-23 -1q-90 -1 -134 51q-28 33 -28 74 q0 24 10 51zM-20 962q28 -33 91 -34q15 0 33 2q52 6 97 21t88.5 43.5t71 49.5t75.5 63t70 60q27 16 54 16q15 0 31 -5q45 -13 57 -47q4 -11 3 -22q0 -25 -18 -54q-27 -38 -93 -128t-100 -139q-17 -24 -43 -71.5t-39 -69.5q133 11 231.5 22.5t219.5 34.5t217 54.5t199 82 t190 117.5q44 33 82.5 74t65.5 89.5t33 94.5q1 9 2 17q0 36 -22 71q-28 43 -91 72q-103 45 -248 62q-113 14 -228 14q-143 0 -289 -22q-263 -40 -487 -146q-191 -88 -249 -209q-21 -38 -21 -68q1 -26 17 -45z" />
<glyph unicode="S" horiz-adv-x="1202" d="M-4 158q12 54 72 110q31 27 69 52t85 48t82 39.5t91 37t81 29t82 27t65 21.5q28 13 48 13q24 0 38 -17q-35 -14 -112.5 -41t-131 -48t-120.5 -50.5t-119.5 -64t-88.5 -72.5q-36 -37 -48 -74q-5 -17 -5 -32q0 -18 8 -34q14 -29 64 -44q36 -11 89 -11q21 0 44 2 q277 34 467 252q46 53 62 109q10 37 10 70q0 18 -2 36q-8 50 -39.5 103t-70 96t-92 91t-97 81t-95.5 73t-76 60q-47 39 -77.5 79t-44.5 84q-6 20 -6 40q0 25 9 50q17 46 66 87q82 67 257 115q142 40 254 40q59 0 109 -11q153 -33 154 -164q0 -12 -2 -24q-1 -14 -4 -28 q-50 -136 -197 -246q-15 -6 -17.5 -5.5t-29.5 10.5q65 52 111 110.5t74 140.5q8 25 8 45q0 78 -114 90q-23 3 -48 3q-112 0 -270 -51q-70 -23 -121 -48q-89 -45 -88 -94q0 -40 57 -82q41 -28 125 -82.5t125 -81.5q75 -50 140.5 -108t119.5 -125.5t90 -137.5t48 -145 q5 -34 5 -67q1 -40 -7 -79q-14 -71 -65.5 -142t-137.5 -132q-147 -103 -323 -139q-77 -16 -152 -15q-95 0 -187 25q-70 21 -122 53.5t-82 74.5q-21 30 -21 66q0 16 4 32z" />
<glyph unicode="T" horiz-adv-x="847" d="M2 1276q0 89 129 158q200 111 627 161q333 43 701 58q172 7 325 7q173 0 321 -9q71 -5 91 -35q16 -22 -18 -35q-23 -8 -60 -8q-610 -6 -1157 -55q-36 -81 -48 -101q-322 -551 -462 -1208q-29 -141 -29 -236q0 -32 -14.5 -50.5t-40.5 -18.5q-55 0 -93 69q-34 64 -34 175 q0 71 14 161q42 251 92 422q8 27 8 54.5t-4 51t-19 50.5t-26.5 45.5t-36 45t-37.5 40t-42.5 38.5t-40 33t-39.5 31q-28 23 -39.5 33t-29.5 31q-20 20 -28 41q-10 26 -10 51zM127 1151q13 -11 48.5 -40.5t51.5 -43.5t45 -42t46.5 -50t37.5 -52.5t35 -62.5q111 319 332 633 q-20 -3 -108.5 -15t-123.5 -18t-102.5 -18.5t-118.5 -28t-100 -35.5q-117 -50 -117 -114q0 -52 74 -113z" />
<glyph unicode="U" horiz-adv-x="1476" d="M12 248q-18 59 -18 127q0 82 26 176q68 204 175 389t256 385q29 38 45 51t41 13t33 -16.5t-19 -55.5q-172 -205 -282 -371t-173 -350q-32 -89 -42 -165q-5 -38 -5 -70.5t5 -60.5q10 -54 41.5 -86.5t79.5 -39.5q11 -2 24 -2q41 0 93 18q68 22 150 76q168 105 321.5 252.5 t328.5 349.5q197 226 385 482q27 38 45.5 48.5t46.5 0.5q33 -10 53 -36t14 -58q-6 -37 -19.5 -80.5t-23.5 -70t-33.5 -80t-29.5 -68.5q-7 -18 -61.5 -150t-70.5 -172.5t-61 -156.5t-63.5 -176t-46 -152t-40.5 -164t-18 -137q-3 -46 -26.5 -61t-57.5 -3q-108 38 -108 234 q0 53 8 118q11 97 41.5 213t58 193t70 186.5t53.5 141.5q-25 -27 -116 -126.5t-131 -141t-114 -116.5t-137.5 -131t-129.5 -106q-158 -118 -263 -156q-58 -25 -113 -25q-36 0 -71 11q-87 27 -121 119z" />
<glyph unicode="V" horiz-adv-x="1093" d="M35 98q-36 110 -35.5 242t35.5 285q99 374 327 688q21 29 38 47.5t38 32t42.5 12t43.5 -18.5q37 -26 37 -63q0 -17 -8 -37q-19 -44 -71.5 -166.5t-74.5 -176t-63 -160.5t-62 -178t-43.5 -166t-33.5 -183q-4 -38 -4 -67q0 -15 1 -29q4 -36 8 -64.5t18 -38t26 -14t32 6.5 t37.5 23t41.5 35.5t43.5 44t44.5 48.5q189 215 543.5 663.5t545.5 665.5q24 27 47 18q17 -6 8 -21q-1 -2 -4 -5q-279 -303 -696 -869q-65 -89 -209.5 -279t-218.5 -292q-52 -72 -114 -114q-63 -42 -123 -50q-9 -1 -16 -1q-52 -1 -98 39q-54 46 -83 142z" />
<glyph unicode="W" horiz-adv-x="1939" d="M-6 197q6 146 56 303t130 298t173.5 264.5t197.5 227.5q89 89 156 123q25 15 50 15q9 0 17 -2q32 -7 57 -37q26 -26 26 -57q0 -28 -23 -60q-188 -280 -313 -487.5t-222 -424.5q-98 -214 -99 -292q0 -23 10 -34q6 -7 16 -7q56 0 235 211q257 311 485 569q22 25 37 41 t46 46.5t55 49.5t57.5 40.5t60.5 30t57 7t54 -17.5q51 -36 50 -132q0 -50 -13 -116q-21 -107 -72.5 -297.5t-65.5 -249.5q-26 -111 -26 -171q0 -35 9 -53q13 -25 35 -25q21 0 50 21q61 44 125 150q121 199 310.5 511.5t340.5 560.5t283 460q27 -8 27 -31q0 -15 -11 -37 q-412 -655 -764 -1312q-43 -78 -70.5 -124.5t-71.5 -109.5t-89 -112q-92 -95 -171 -95q-13 0 -25 2q-89 18 -147.5 112t-64.5 214q-1 21 -1 41q0 115 29 221q34 124 103 270q62 136 62 178q0 13 -6 17q-3 2 -6 2q-33 0 -152 -135q-99 -103 -202 -230t-222 -282.5 t-190 -241.5q-61 -68 -121 -96q-40 -18 -74 -19q-17 1 -32 5q-46 14 -81 54t-52 104q-14 52 -14 111q0 14 1 28z" />
<glyph unicode="X" horiz-adv-x="970" d="M-75 -9.5q0 15.5 9 25.5q54 125 218 342t288 340q24 113 58 226.5t58.5 180t74.5 198.5q34 88 34 127q0 30 -21 30h-1q-39 0 -176 -121q-8 -7 -18 -16q-191 -175 -338 -444q-2 4 -7.5 15.5t-6.5 14.5t-2 11t1.5 15t7.5 17q124 236 316 416q204 195 323 195q70 0 111 -68 q28 -47 34 -123q2 -34 2 -64q0 -38 -4 -68q-7 -56 -25 -150t-21 -115q84 55 227 171t207 161q2 1 7.5 6t8.5 7t9 5.5t10.5 4t11 1t14 -2t15.5 -7.5q-5 -4 -14 -14t-15 -13q-441 -356 -498 -401q-46 -134 -79 -282.5t-47 -289.5q-5 -46 -5 -87q0 -85 20 -147q29 -93 105 -95 q24 0 36.5 -8.5t8 -19.5t-25.5 -19q-32 -5 -62 -5q-48 0 -90 12q-70 18 -120.5 61.5t-87 108t-53.5 142.5q-16 73 -16 156v10q1 88 21 178q-219 -219 -487 -641q-16 8 -16 23.5z" />
<glyph unicode="Y" horiz-adv-x="1275" d="M-20 156q19 59 71 109t121 81t151.5 55t161.5 32t151 11q16 1 30 1q54 0 92 -9q198 296 368 869q-304 -235 -563 -373q-51 -28 -89 -44.5t-88 -31.5q-38 -12 -72 -12q-11 0 -23 2q-44 5 -80 31q-42 31 -55 91q-5 27 -5 54q0 34 9 68q18 92 83 206t134 183q13 11 26.5 11 t22.5 -13q-171 -224 -211 -398q-8 -36 -8 -64q0 -53 27 -81q31 -32 85 -32q18 0 39 4q84 14 199 75q424 230 715 555q21 23 43 25.5t51 -11.5q54 -31 54 -75q0 -6 -1 -13q-66 -316 -211 -633t-340 -542q-194 -223 -430 -324q-121 -52 -220 -52q-107 0 -187 62 q-62 48 -62 118q0 31 11 65zM40 47q36 -68 122 -70h5q70 0 143 27q75 29 136.5 74t118.5 102t96.5 110.5t65.5 102.5q-31 2 -64 2q-51 0 -108 -5q-95 -9 -194 -31.5t-183.5 -67.5t-124.5 -105q-28 -41 -28 -81q0 -29 15 -58z" />
<glyph unicode="Z" horiz-adv-x="1581" d="M4 106q-1 7 -1 15q1 47 41 77q46 36 117.5 46.5t137.5 10.5t111 -9q1 0 3 -1t3 -1q60 33 163 147t181 213q-183 4 -287 37q-20 10 -29 33h12q36 0 83 -5q55 -5 94 -11q33 -5 68 -5h13q42 1 68 13q52 23 70 43q51 61 122 157.5t119.5 163t117 137t135.5 111.5 q11 7 29.5 17.5t23.5 12.5q24 12 34 18.5t20 14.5t4.5 11.5t-24.5 6t-55 1.5q-61 1 -140 15t-149 29.5t-144 27.5q-54 9 -108 9q-20 1 -41 -1q-75 -4 -139 -31q-94 -37 -154 -115t-73 -186q-35 -1 -46 31q-5 15 -5 30q0 16 6 33q43 140 159 222q108 77 267 78q12 0 23 -1 q72 -1 170.5 -19t174.5 -36q77 -17 175 -27q41 -4 77 -4q51 0 93 8q26 6 47 6q32 0 51 -14q17 -13 17 -33q0 -16 -11 -36l-22 -29q-142 -138 -254 -305t-228 -385q11 -1 29.5 -5t26.5 -4q40 -5 114.5 -9.5t96.5 -6.5h6.5h7.5t7 -0.5t7 -1t6 -2.5t6.5 -4t5.5 -5.5t5 -8.5 q-13 -10 -46 -10q-12 0 -26 1q-65 2 -240 15q-33 0 -53 -23q-126 -232 -311 -420q115 -34 248 -47q119 -12 201 -12h19q86 2 239 10q-5 -23 -17 -30.5t-41 -14.5q-95 -9 -199 -11h-16q-98 0 -221 17q-133 18 -250 56q-64 -58 -138 -101q-75 -42 -155 -68q-65 -21 -132 -20 q-16 0 -32 1q-84 6 -155 48q-49 33 -78.5 64.5t-34.5 70.5zM64.5 98q2.5 -13 12.5 -22.5t25 -12.5q7 -2 15 -1q44 0 123 45q93 54 118 92q-18 5 -69 5h-41q-86 -2 -125 -22q-23 -11 -37.5 -26t-19 -30t-2 -28z" />
<glyph unicode="\" horiz-adv-x="761" d="M-16 1614q-15 45 5.5 73t53 19.5t49.5 -53.5q373 -945 572 -1843q15 -60 -24 -88q-30 -23 -60 -4q-19 12 -25 38q-39 145 -86 307.5t-84.5 287t-98.5 318.5t-93 294.5t-106.5 331.5t-102.5 319z" />
<glyph unicode="a" horiz-adv-x="1007" d="M-25 391q8 105 67 213q58 107 152 179q90 69 181 69h8q42 -2 73 -17t72 -49.5t56 -44.5q22 24 32.5 35.5t33 30t39 23.5t40 4t45.5 -15q38 -22 50 -54q5 -13 5 -27q0 -20 -10 -42q-22 -43 -75 -142.5t-86.5 -169.5t-59.5 -138q-14 -34 -14 -64v-8q2 -34 24 -46 q6 -3 15 -3q21 0 53 20q44 29 97.5 78t85 83.5t93 104t74.5 83.5q12 -8 17.5 -15.5t4.5 -15t-2.5 -11t-8 -12t-7.5 -10.5q-29 -32 -92 -105.5t-110.5 -124.5t-96.5 -94q-36 -33 -88 -49q-24 -7 -46 -7q-24 0 -47 8q-43 16 -71 61q-54 79 -54 166q0 26 5 53q4 36 12 77 t20 90.5t17 76.5q-2 -1 -28 -33q-12 -17 -44 -62.5t-46.5 -66t-43.5 -59.5t-49.5 -63t-48 -54t-53.5 -54q-32 -26 -61 -26q-35 0 -66 37q-65 78 -65 168q0 11 1 22zM128 240q30 4 83 69q47 58 97 122.5t111 147t93 123.5q-15 2 -29 2q-47 0 -95 -24q-62 -32 -110 -92.5 t-84 -123.5t-61 -126q-19 -55 -19 -79q0 -19 12 -19h2z" />
<glyph unicode="b" horiz-adv-x="1042" d="M4 2q-49 110 -49 248q0 149 57 330q38 117 102 260t144.5 289t177.5 270.5t185 183.5q29 17 52 15t58 -21q45 -31 61 -71q8 -19 8 -40q0 -22 -9 -43q-60 -123 -169 -337t-194 -388.5t-152 -332.5q7 7 36.5 38.5t39 41.5t37.5 38t41.5 40t39.5 34.5t44 35t42.5 28.5 t48.5 27t48 20q33 11 61 11q39 -1 69 -21q51 -34 51 -104v-5q0 -112 -64 -236q160 20 299 166q6 -46 -2 -57q-26 -52 -132 -99.5t-177 -56.5q-15 -13 -44 -50t-59.5 -74.5t-68.5 -74.5t-84 -60q-42 -21 -85 -21h-7q-94 3 -113 88q-3 15 -3 30q0 35 16 70q22 50 65 86 q22 18 49.5 30t49 17t55.5 5t51.5 -0.5t56.5 -4t51 -4.5q68 102 88 215q1 11 1 21q0 37 -12 57q-15 26 -43.5 27.5t-60.5 -10.5t-67 -35q-142 -98 -282 -280t-173 -325q-11 -33 -30.5 -42t-39.5 2.5t-37.5 30t-27.5 38.5zM337 92q4 -26 22 -39t47 -12t57 18q107 64 196 199 h-64t-69 -1.5t-52.5 -11t-59.5 -28.5q-40 -32 -58 -63q-20 -31 -20 -54q0 -4 1 -8z" />
<glyph unicode="c" horiz-adv-x="700" d="M-31 400q3 70 33 132q30 71 79.5 136t115 115.5t139.5 66.5q26 5 51 5q49 0 100 -19q89 -35 109 -109q14 -34 4.5 -47.5t-41.5 -1.5q-12 2 -24 2q-80 0 -187 -96q-104 -93 -160 -207q-32 -66 -32 -108q0 -33 20 -51q19 -17 56 -17q22 0 49 6q61 16 115.5 41.5t110 67 t87 68.5t92.5 83q1 1 6.5 7t7.5 7.5t7.5 5.5t9 5t9 2.5t11.5 0.5t13 -3q-16 -28 -23 -33q-16 -15 -56.5 -54t-62 -60t-62.5 -56.5t-69 -55.5t-69 -45t-75 -38q-35 -12 -75 -20q-29 -6 -57 -6q-11 0 -21 1q-69 5 -119 46q-51 41 -73 100q-20 52 -19 113v16z" />
<glyph unicode="d" horiz-adv-x="1112" d="M-39 395q26 182 205 305q86 56 176 56q104 0 213 -76q242 583 522 905q21 24 34 37.5t34.5 30.5t39 22.5t40.5 3.5t47 -16q44 -30 63 -69q11 -22 11 -44q0 -17 -7 -34q-6 -10 -15.5 -26.5t-12.5 -21.5q-114 -170 -240.5 -386t-246.5 -472.5t-144 -406.5q-9 -54 -9 -89 q0 -68 33 -68h2q48 3 179 159q60 71 65 76q18 21 72.5 87t87.5 99q21 19 41 21q20 3 -4 -29q-46 -54 -127 -152t-100 -121q-148 -184 -252 -184q-72 0 -123 88q-39 68 -51 178q-5 46 -5 89q0 59 9 110q-187 -247 -310 -356q-34 -29 -70 -29t-73 31q-61 47 -79 125 q-11 44 -11 89q0 34 6 68zM134 176q10 -17 27.5 -11t43.5 30q94 85 209.5 247.5t122.5 192.5q-23 19 -51 19q-62 0 -152 -93q-66 -72 -128 -168.5t-71 -142.5q-6 -30 -6 -49q0 -17 5 -25z" />
<glyph unicode="e" horiz-adv-x="704" d="M-27 369q-1 17 -1 34q0 63 18 123q22 76 74 143.5t122 100.5q73 41 139 42q53 0 101 -28q46 -31 56 -69q4 -13 3 -26q-1 -23 -13 -47q-20 -36 -53.5 -71t-79 -64.5t-84.5 -51t-71 -33.5q-23 -47 -23 -97q-1 -55 23 -91q22 -36 62 -52q17 -7 36 -7q25 0 54 13 q39 15 107.5 67.5t150 122.5t106.5 89l6 5l7.5 5t7.5 4.5t9 4l9 1.5t11 0t11.5 -4t12.5 -8q-10 -14 -37 -37q-44 -36 -96 -80t-95 -79t-100 -78q-72 -56 -150 -77q-36 -10 -72 -10q-42 0 -82 14q-76 24 -124 99q-39 61 -45 142zM197 471q50 17 143.5 84.5t89.5 93.5 q-9 19 -27 19q-29 0 -81 -44q-69 -58 -112 -128q-8 -14 -13 -25z" />
<glyph unicode="f" horiz-adv-x="606" d="M-246 -206q2 59 10 108q47 291 224 611t391 548q39 39 73 44q6 1 12 1q29 0 66 -21q62 -41 62 -105q0 -36 -19 -79q-102 -203 -211 -366q140 -47 225 -47q39 0 66 10q-23 -33 -54.5 -49.5t-90.5 -16.5q-1 -1 -2 -1q-58 0 -141 24q12 -109 14 -213v-29q0 -92 -11 -197 q-12 -121 -41 -223t-87 -198t-140 -158q-52 -40 -115 -40h-9q-68 3 -121 44q-41 33 -65 94t-30 130q-6 56 -6 106v23zM-7 -527q9 -17 24 -17q35 0 106 87q70 85 115 194.5t62 224.5q18 113 18 223v6q-1 113 -19 225q-170 -276 -262 -604q-54 -190 -54 -280q0 -39 10 -59z " />
<glyph unicode="g" horiz-adv-x="1067" d="M-192 -662q12 50 38 95.5t66 87.5q66 77 155 154.5t157 126.5t178.5 127t164.5 118q79 59 109 307q7 50 8.5 86.5t-6 56.5t-13.5 33.5t-25.5 10.5t-31 -5t-41 -21.5t-44 -29.5t-51.5 -37q-29 -21 -45 -32.5t-41.5 -29t-47.5 -30.5q-122 -74 -210 -80h-13q-79 0 -117 66 q-26 45 -26 121q0 42 8 94q10 65 44.5 126.5t83 107.5t109 74.5t119.5 33.5q9 1 18 1q49 0 98 -23q58 -27 99 -86q18 -36 17.5 -53t-19 -19.5t-51.5 0.5q-14 2 -28 2q-34 0 -67 -12q-47 -17 -90 -53.5t-74.5 -69.5t-69.5 -78q-13 -16 -19 -23q-38 -55 -48.5 -89.5t5 -47 t50.5 -7t87 27.5q61 25 124.5 69.5t132 100.5t111.5 84q53 34 100 34q32 0 61 -16q71 -39 114 -125q41 -82 41 -161v-7q141 141 153 152q12 -5 17 -10.5t2.5 -13t-4.5 -11t-9 -12.5q-10 -12 -58.5 -60t-77 -86.5t-31.5 -68.5q-17 -277 -180.5 -554.5t-389.5 -449.5 q-72 -53 -147.5 -83.5t-157.5 -30.5q-1 -1 -2 -1q-81 0 -147 39q-56 35 -78 82q-14 31 -14 63q0 17 4 35zM-119 -618q-20 -48 -20 -79q0 -38 29 -52q13 -6 32 -6q20 0 47 7q78 23 157.5 86t142 139.5t122.5 174t99.5 175t74.5 157.5q-393 -241 -606 -480q-46 -46 -78 -122z " />
<glyph unicode="h" horiz-adv-x="1208" d="M-23 469q21 131 93 308t162.5 339.5t188 303.5t173.5 216q40 38 76 44q6 1 14 1q30 0 64 -20q46 -27 62 -71q7 -18 6 -36q0 -24 -13 -47q-375 -628 -606 -1261q-11 -30 -17.5 -53t-10.5 -44.5t0 -31t14.5 -9.5t32.5 16.5t54 49.5q49 50 137.5 154.5t159 187.5t159.5 168 t159 123q35 16 67 16q30 0 58 -14q58 -28 67 -96q2 -16 2 -31q0 -41 -16 -72q-4 -16 -107 -189q-134 -224 -134 -265q0 -4 1 -6q2 -5 8 -5q14 0 50 29q72 54 196 182.5t150 151.5q23 19 33 11.5t6 -27.5q0 -22 -84 -109t-154.5 -151.5t-114.5 -102.5q-50 -43 -100 -63 q-31 -12 -62 -12q-21 0 -41 4q-52 12 -89 67q-10 21 -10 50t8 60t22.5 67t31.5 69.5t36.5 69t36.5 63.5t33 56t24 44q22 51 22 70q0 11 -7 12q-2 0 -4 -1q-25 -6 -103 -99q-36 -44 -117.5 -136.5t-177.5 -201.5t-119 -135q-31 -34 -67.5 -59.5t-76.5 -39.5q-19 -7 -37 -7 q-20 0 -39 8q-36 16 -57 67q-55 116 -55 254q0 64 12 133z" />
<glyph unicode="i" horiz-adv-x="493" d="M-55 318q11 78 46.5 156.5t71 135t62.5 84.5q26 36 63 36q25 0 54 -17q41 -27 61 -60q12 -19 12 -38q0 -13 -6 -25q-122 -234 -174 -359q-28 -65 -28 -95q0 -16 8 -21q4 -3 9 -2q28 0 109 73q205 205 265 287q12 17 32 8q22 -9 9 -32q-3 -7 -9 -13q-206 -239 -305 -319 q-53 -43 -104 -53q-14 -3 -28 -2q-35 0 -67 18q-44 26 -71 90q-14 46 -14 95q0 26 4 53zM246 829q15 83 45 142q12 28 37 32.5t49 -9t43.5 -36t23.5 -45.5q1 -5 -0.5 -11.5t-5 -15t-7.5 -16.5t-11 -18t-12 -18t-12.5 -18.5t-11.5 -16.5t-10 -14.5t-9 -10.5 q-17 -19 -45 -13.5t-53 28t-21 40.5z" />
<glyph unicode="j" horiz-adv-x="892" d="M-369 -844q-3 19 -3 38q0 99 63 218q129 240 387 443q88 71 253.5 184.5t233.5 165.5q25 21 40.5 57.5t15.5 71.5v21v40.5t-1 45t-3 47t-6 47t-10 44t-15 38.5t-21 31t-28 20.5t-36.5 8t-45.5 -6.5q-77 -23 -175 -113.5t-192 -208.5q-20 -25 -47 -25q-10 0 -22 4 q-41 14 -57 53q-7 18 -7 36q0 21 10 43q73 134 190 221.5t253 97.5q12 1 23 1q67 0 118 -35q60 -40 90 -113t42 -169q5 -43 5 -87q0 -55 -8 -113q44 28 113 90.5t118 126.5q9 -8 14.5 -14.5t6.5 -13.5t2 -11t-4.5 -12t-7 -10.5t-10.5 -12t-11 -12.5q-25 -26 -87 -80t-99 -94 t-39 -65q-62 -290 -209 -567t-342 -449q-146 -128 -294 -128q-12 0 -24 1q-72 3 -118 41t-56 104zM-302 -808q-1 -8 -1 -16q0 -48 35 -65q19 -10 50 -10q34 0 83 12q91 36 171.5 95.5t146.5 138t114.5 151t101.5 166.5q54 99 102.5 232.5t76.5 250.5q-140 -94 -233 -161 t-204 -159t-199 -191t-157 -209q-34 -56 -57.5 -115.5t-29.5 -119.5zM502 893q14 81 45 141q12 28 37 32.5t49 -8.5t43.5 -35.5t23.5 -45.5q1 -5 -0.5 -11.5t-5 -15t-7.5 -16.5t-11 -18t-12 -18t-12.5 -18.5t-11.5 -16.5t-10.5 -14.5t-8.5 -10.5q-17 -19 -45 -13.5t-53 28 t-21 40.5z" />
<glyph unicode="k" horiz-adv-x="901" d="M-18 354q2 60 10 111q50 301 254 631q191 313 368 540q35 33 67 37q5 1 10 1q28 0 61 -19q42 -21 62 -61q12 -26 13 -51q0 -14 -4 -27q-6 -24 -28 -60q-56 -119 -164.5 -324.5t-190.5 -374t-123 -298.5q43 54 78 93t83.5 84.5t100 76.5t103.5 43q13 4 25 4q38 0 63 -37 q14 -17 15 -37.5t-9 -39t-27 -38t-31.5 -32.5t-29.5 -23q-54 -34 -110 -65.5t-135.5 -72.5t-108.5 -57q37 -132 86 -204q14 -16 28.5 -25.5t31 -11t30.5 -1.5t32 8.5t30 14.5t31 20.5t28 22t27.5 23t23.5 20.5q33 29 113 120.5t108 117.5q13 19 28 19q14 0 30 -17 q-36 -34 -155 -164t-181 -180q-61 -58 -121 -58q-63 0 -125 62q-17 19 -34.5 46.5t-28.5 48.5t-27.5 55t-24.5 49q-47 -72 -66.5 -132t-29.5 -143q-6 -37 -31.5 -49.5t-56.5 10.5q-39 32 -62.5 91t-29.5 126q-5 54 -6 105v22zM369 436q170 72 288 156q77 56 77 110q0 5 -1 9 q-34 -4 -62 -12.5t-58 -27.5t-43.5 -29.5t-47.5 -37.5q-39 -33 -58.5 -51t-49 -51.5t-45.5 -65.5z" />
<glyph unicode="l" horiz-adv-x="585" d="M-29 369q2 141 49 302t126.5 315.5t165.5 289t186 264.5q6 8 27 37.5t30.5 41t30.5 35t36.5 31.5t37 17t44 5t46.5 -17q67 -37 67 -100q0 -43 -31 -97q-57 -117 -162 -310.5t-179.5 -332.5t-153 -323t-117.5 -341q-13 -51 -13 -81q0 -46 29 -45h8q60 10 189 151 q27 29 41 47q43 57 83 112.5t71 96.5q2 3 7.5 9.5t8 9.5t7.5 6t9.5 2t10.5 -5q8 -4 11 -8.5t1 -10t-4.5 -9.5t-7.5 -10.5t-7 -10.5q-15 -22 -58.5 -84t-71 -99.5t-67 -88.5t-74.5 -87t-66 -58q-35 -27 -73 -27q-12 0 -26 2q-52 12 -96.5 47t-67.5 78q-47 86 -47 224v22z" />
<glyph unicode="m" horiz-adv-x="1402" d="M-35 395q48 210 203 353q33 30 70 49q35 20 68 20q44 0 83 -37q35 -34 43 -64q2 -7 1 -14q0 -25 -19 -59q-128 -147 -224 -338q-26 -49 -6 -45q30 6 222 192q145 139 174 162q32 23 59 23q18 0 33 -10q23 -13 31 -38.5t-1 -51.5q-20 -68 -55 -142q-30 -79 -30 -112 q0 -24 16 -25q3 0 6 1q21 5 61 40q40 38 144 162.5t155 175.5q104 104 185 104q32 -2 48 -24t9 -58q-11 -57 -39 -115.5t-69.5 -127t-59.5 -105.5q-61 -119 -62 -166q0 -17 9 -25q6 -5 14 -6q29 0 90 60l6 6q50 50 131 144.5t111 126.5q21 29 43 43q18 11 29 0t6 -29 q-3 -4 -11.5 -12.5t-11.5 -12.5q-32 -37 -88 -105.5t-90 -109t-82 -87.5t-90 -75q-27 -20 -52 -20q-13 -1 -25 5q-36 16 -39 67q-1 10 -1 20q0 35 8 71q10 47 23.5 79t38.5 82q19 42 57 120.5t54 114.5q10 24 10 37q0 16 -15 15h-4q-30 -4 -68 -37l-7 -7q-46 -45 -132 -149 t-132 -150q-67 -71 -80 -84l-16.5 -16.5l-18 -18t-17 -16t-18.5 -16t-18 -13t-20 -11.5t-19.5 -7t-21 -3.5t-20.5 2.5t-22 7q-55 24 -55 91q0 49 29 120q7 17 20.5 46.5t18.5 41.5q20 47 20 62q0 7 -4 7q-11 0 -39 -28q-266 -256 -293 -280l-19 -19t-24.5 -23t-21.5 -16 q-33 -23 -65 -23h-7q-36 2 -62 33q-62 70 -62 173q0 35 7 75z" />
<glyph unicode="n" horiz-adv-x="1191" d="M-42 339q4 49 19.5 94.5t42.5 90.5q23 43 55 90.5t72.5 98t87 87t87.5 44.5q11 3 22 3q41 0 76 -36q46 -35 46 -76q0 -28 -22 -59q-25 -36 -118.5 -141t-114.5 -134q-24 -33 -24 -43q0 -4 5 -4q16 0 91 60q22 17 100.5 79.5t117 91.5t104.5 70t122 64q42 14 82 20 q12 2 22 2q29 1 52 -15q30 -21 30 -60q0 -53 -23 -109t-65 -126.5t-53 -94.5q-41 -82 -41 -120q0 -33 30 -33q4 0 8 1q59 8 210 119q160 123 207 170q19 20 36 20q13 0 25 -12q7 -7 8 -12.5t-3.5 -10.5t-9.5 -8.5t-13 -8.5t-12 -9q-25 -21 -79.5 -69.5t-81.5 -71t-72 -57 t-88 -60.5t-91 -49q-36 -17 -65 -17q-34 0 -60 23q-40 33 -40 97q0 42 17 98q13 46 33.5 89t59.5 107.5t47 79.5q24 39 24 57q-1 9 -7 13q-5 3 -12 2q-21 0 -61 -19q-95 -44 -178.5 -102t-193.5 -147q-17 -15 -107 -98t-137 -120q-23 -20 -48 -20q-14 0 -28 6q-49 28 -71 72 q-19 38 -20 80v13z" />
<glyph unicode="o" horiz-adv-x="808" d="M6 518q21 54 49 101t67 85q40 38 82 58q32 15 70 14q12 0 24 -1q52 -6 105 -42q26 102 78 160q26 33 63 48q20 8 39 8q17 0 33 -6q36 -13 54 -56q23 -58 23 -126q0 -144 -103 -335q17 -1 33 -1q98 0 211 44q6 -27 -24 -47t-75.5 -28t-93.5 -12q-21 -2 -38 -2q-23 0 -40 3 q-28 -46 -82 -106t-98 -101q-44 -37 -82 -60q-38 -24 -83 -36q-20 -6 -41 -5q-23 0 -47 8q-44 15 -83 58q-77 90 -77 207q0 79 36 170zM187 233q-9 -31 -9 -52q0 -35 25 -41q5 -1 11 -1q49 0 144 95q64 65 136 165q-83 58 -113 146q-156 -182 -194 -312zM436 612v-7 q0 -43 21 -85q23 -46 67 -78q109 156 109 361q0 52 -13 74.5t-33 17.5t-42 -24.5t-43 -49.5q-63 -97 -66 -209z" />
<glyph unicode="p" horiz-adv-x="1136" d="M-308 -352v23q0 98 20 191q21 104 68 223t98 217.5t121 211.5t123.5 190.5t119.5 167.5q70 116 142 116q18 0 36 -7q46 -18 74 -54q24 -31 24 -65v-10q-1 -14 -14.5 -46.5t-37 -77.5t-41 -78.5t-42.5 -78t-27 -47.5q172 143 369 238q34 16 66.5 28t74.5 20q24 4 45 4 q15 0 29 -2q31 -6 55 -33t27 -77q2 -31 -3 -59.5t-20 -57.5t-25.5 -45.5t-34.5 -49.5l-32 -44q15 -1 32 -1q88 0 222 34q12 3 14 -12q1 -16 -10 -29q-30 -15 -68.5 -22.5t-93.5 -13t-81 -9.5q-64 -7 -107 -47q-154 -141 -328 -188q-42 -8 -75 -8q-17 0 -32 2q-42 7 -57.5 32 t-11 55.5t32.5 65t72 60.5q43 27 91.5 44t106.5 23.5t96.5 8t104.5 1.5q9 11 37.5 45.5t41.5 53t32 48.5t27 57.5t8 58.5q0 47 -48.5 47t-144.5 -47q-101 -49 -184 -109q-168 -113 -330.5 -325t-271 -458.5t-125.5 -451.5q-5 -41 -30 -41q-7 0 -17 4q-44 22 -80 123 q-35 92 -38 201zM364 219q15 -15 46 -21q9 -1 18 -1q26 0 61 12q84 30 160 78.5t121 103.5q-22 -2 -69.5 -4.5t-74.5 -5.5t-65.5 -9t-70 -18t-60.5 -30q-48 -32 -64.5 -61t-1.5 -44z" />
<glyph unicode="q" horiz-adv-x="1124" d="M-20 475q17 91 88 172q30 36 78.5 75t109.5 72.5t120 50.5q32 9 63 9q26 0 50 -6q54 -14 86 -64q19 -34 14 -60t-36 -54q-29 -20 -121.5 -77t-138.5 -93q-63 -52 -106 -106q-23 -30 -23 -43q0 -11 14 -11q4 0 8 1q19 2 54 17q70 32 196 103t231.5 123.5t178.5 68.5 q24 5 45 5q54 0 83 -36q16 -19 16 -43q0 -35 -36 -79q-48 -60 -154 -161t-128 -124q132 63 234 126t233 159q39 -14 12 -41q-117 -93 -469 -299l-1 -1h-1l-2 -1q-39 -23 -45 -35q-2 -5 -2 -16q0 -19 8 -57q0 -3 2 -10q4 -18 6 -28q13 -69 21 -137t12 -149v-42q0 -59 -7 -114 q-10 -74 -30 -143t-61.5 -124t-100.5 -87q-69 -38 -140 -38q-65 0 -132 31q-78 36 -125.5 107.5t-48.5 159.5v14q0 102 42 210q45 115 121.5 215t158.5 181t171 148q52 43 174 136t179 144q34 29 34 47q0 13 -19 20q-16 6 -34 6q-23 0 -51 -9q-8 -3 -14 -6 q-126 -57 -240 -121q-39 -20 -114.5 -64t-114.5 -65q-17 -10 -37 -18.5t-46 -18t-38 -14.5q-35 -11 -65 -11q-21 0 -40 5q-46 13 -75.5 45t-42.5 74q-7 26 -7 50q0 16 3 31zM178 -610q10 -105 75 -111h8q36 0 83 29q60 39 108 107.5t75.5 146t46 165t18.5 164.5q1 5 1 10 q0 71 -7 134q-1 12 -17 78q-274 -283 -352 -486q-41 -104 -41 -197q0 -20 2 -40z" />
<glyph unicode="r" horiz-adv-x="966" d="M-76 203q0 56 13 114q102 388 339 535q32 19 63 19q41 0 81 -33q39 -33 39 -72q0 -25 -17 -53q-12 -20 -41 -59.5t-48 -72.5t-23 -65q26 20 82 64.5t88.5 69.5t83.5 58t98 56q6 3 29.5 14t32.5 14.5t29.5 11.5t32.5 8t28 0.5t28 -6t23 -18.5q12 -15 11.5 -35.5 t-11.5 -45.5q-10 -16 -84 -107t-105 -139q-34 -52 -33 -78q0 -24 29 -23h6q49 4 168 68q5 2 84 43q5 2 17 8.5t17.5 7.5t14 -3.5t15.5 -18.5q-21 -13 -78 -50.5t-95 -58.5t-83 -39q-29 -12 -56.5 -18.5t-59.5 -3t-44 26.5q-10 21 -10 46q0 11 2 23q7 38 26 66 q18 29 93.5 116.5t83.5 98.5q35 51 35 70q0 12 -13 12q-4 0 -10 -1q-34 -7 -111 -55q-84 -54 -167.5 -120t-172 -148.5t-153 -176t-86.5 -177.5q-9 -35 -35 -46t-60 3q-45 13 -70 61q-26 48 -26 109z" />
<glyph unicode="s" horiz-adv-x="503" d="M-456 -232q-4 20 -3 41q0 44 18 88q27 65 87 111q73 64 240.5 149.5t201.5 116.5q-13 24 -43 78.5t-44 82t-28.5 72t-17.5 85.5q-1 9 -1 18q0 62 44 114q50 60 127 87q52 18 102 18q24 0 47 -4q123 -21 123 -111q0 -49 -37 -120q-37 15 -24 39q16 33 22 61q10 42 -21 38 q-33 -4 -81 -45l-12 -11q-28 -34 -35 -74q-2 -11 -2 -20q0 -28 14 -54q16 -30 101 -159q95 40 186 96q9 5 18.5 2.5t9.5 -11t-14 -22.5q-12 -11 -28 -22t-28.5 -19t-33.5 -19t-29.5 -15.5t-32 -16t-26.5 -12.5q53 -96 53 -190q0 -41 -10 -82q-33 -134 -130.5 -239.5 t-223.5 -156.5q-70 -28 -143 -43q-47 -10 -97 -10q-27 -1 -57 3q-82 8 -131 52q-49 40 -61 104zM-402 -172q0 -4 1 -9q0 -35 18 -64q21 -32 59 -47q23 -9 53 -9q20 0 43 4q57 10 119 47q119 72 181 208q41 91 42 177q0 42 -10 82q-8 -5 -157.5 -84.5t-218.5 -126.5 q-61 -42 -94.5 -90t-35.5 -88z" />
<glyph unicode="t" horiz-adv-x="589" d="M-135 1165q28 40 59 43q38 4 170.5 19t204.5 20q52 3 84 43q21 32 68.5 106t84.5 127t76 99q41 47 88 47q31 0 64 -20q44 -27 59 -67q7 -18 7 -37q0 -24 -11 -50q-8 -16 -45.5 -90t-58.5 -113q23 1 425 27q374 24 509 24h20q5 -18 -6.5 -25t-34.5 -9q-21 -1 -905 -60 q-17 -1 -28.5 -8t-16.5 -14t-14 -23q-177 -307 -281.5 -520.5t-171.5 -431.5q-26 -88 -26 -137q0 -33 12 -48q7 -8 17 -9q24 0 69 46q74 74 171.5 202.5t147.5 185.5q33 -10 33 -27q0 -10 -12 -23q-52 -60 -112.5 -142t-109 -140.5t-102.5 -100.5q-64 -51 -124 -51 q-16 0 -31 4q-75 16 -115 103q-44 111 -44 236q0 87 21 181q36 166 109 318t196 356q-92 -4 -258.5 -21.5t-187.5 -19.5z" />
<glyph unicode="u" horiz-adv-x="1157" d="M-30 331q-2 21 -3 42q0 63 20 125q26 82 65.5 155t86.5 127q23 27 48.5 48t59.5 40q33 19 63 19q1 -1 2 -1q31 0 65 -18q10 -6 16.5 -13t9 -15t4 -14.5t-1.5 -16t-4.5 -15t-7.5 -16t-8.5 -14.5t-10 -15t-9.5 -14q-118 -177 -182 -353q-34 -92 -34 -140q0 -40 24 -47 q5 -2 12 -2q41 0 128 75q72 62 156 156.5t164.5 182.5t152.5 145q55 38 98 38q4 0 10 -1q46 -5 72 -43q16 -25 16 -53q0 -15 -5 -31q-3 -11 -69 -180q-71 -179 -71 -242q0 -26 12 -31q4 -2 10 -2q26 0 81 47q49 46 111 114.5t90 96.5q26 26 49 26q8 0 15 -3q13 -9 7 -19 q-67 -68 -146.5 -151t-109.5 -115q-73 -70 -151 -72q-61 2 -98.5 38.5t-48.5 84.5q-8 35 -8 75q0 14 1 29q3 57 30 144t30 104q-63 -52 -149.5 -153t-169 -185.5t-161.5 -126.5q-42 -23 -81 -23q-16 0 -30 4q-54 12 -93 62q-49 62 -57 147z" />
<glyph unicode="v" horiz-adv-x="868" d="M-33 391q26 193 123 338q13 18 23 31.5t24.5 29.5t28 25.5t29.5 16t33.5 5.5t35.5 -10q46 -25 46 -69q0 -14 -5 -29q-12 -38 -61 -164q-85 -236 -85 -345q0 -29 6 -49q10 -34 38 -34q42 0 122 77q44 43 99 110q-8 59 -8 120q0 138 42 286q62 213 167 321q36 38 85.5 38 t73.5 -36q14 -20 13 -63q0 -46 -7 -84q-7 -35 -16 -68q-64 -237 -209 -430q-29 -38 -30 -74t17.5 -56t53 -20t70.5 27q46 34 112.5 104t88.5 90q8 -1 13.5 -14.5t2.5 -18.5q-39 -50 -63.5 -79t-65.5 -70.5t-83.5 -65.5t-86.5 -32q-20 -3 -37 -3q-74 0 -106 62 q-6 -6 -22 -24.5t-23 -26t-21.5 -23t-25 -25t-25 -23t-30 -26t-32.5 -24.5q-62 -44 -122 -48q-7 -1 -14 0q-51 0 -89 28q-88 62 -88 221q0 48 8 104zM524 465q32 45 60 92q128 206 166 363q6 36 6 59q0 39 -18 39h-4q-30 -7 -83 -88q-59 -86 -96 -224q-32 -119 -32 -212 q0 -15 1 -29z" />
<glyph unicode="w" horiz-adv-x="1363" d="M-56 311q8 76 34 154.5t67.5 156.5t83 140.5t80.5 107.5q33 40 75 46q8 1 15 1q33 0 57 -22q45 -28 45 -71q0 -29 -20 -64q-30 -55 -106.5 -179t-108.5 -190q-48 -107 -48 -155q0 -7 1 -12q3 -14 14 -15q28 0 109 94q13 14 100 124.5t172 197.5q52 54 98 67q17 5 32 5 q24 0 40 -13q26 -20 38 -56q8 -22 8 -44q0 -14 -3 -29q-66 -320 -66 -433q0 -39 8 -54q6 -11 16 -11q15 0 40 23q41 38 112.5 134t131.5 198q-67 115 -67 244q0 167 112 358q12 17 18.5 27t22 31.5t26.5 35t28.5 33t31.5 31.5t32 24.5t33.5 17.5t32 5.5t31.5 -7.5 q36 -17 47.5 -45.5t11.5 -72.5q-2 -38 -8 -76t-19.5 -81t-22.5 -74t-31 -80.5t-31.5 -72t-38.5 -77.5t-36 -69t-39.5 -73.5t-35.5 -64.5q35 -28 86 -28q93 0 238 92q5 3 8 4.5t6 3.5q-31 -55 -90.5 -97t-132.5 -53q-15 -2 -30 -2q-58 0 -114 33q-138 -212 -254 -320 q-80 -73 -162 -73h-10q-50 3 -88.5 33t-56.5 83q-15 45 -15 101q0 119 68 291q24 54 24 71q0 7 -4 7q-2 0 -4 -1q-13 -6 -40 -36q-40 -47 -133.5 -173.5t-151.5 -187.5q-77 -82 -143 -82h-7q-69 4 -100 84q-19 45 -19 99q0 18 2 36zM952 694q-3 -24 -2 -47q0 -100 49 -178 q11 21 68 122t74.5 136t54.5 112t55.5 136t30.5 121q1 13 1 23q0 57 -32 57q-4 0 -9 -1q-52 -10 -142 -114q-30 -34 -43 -55q-84 -142 -105 -312z" />
<glyph unicode="x" horiz-adv-x="962" d="M-37 506q-5 17 -5 35q0 32 15 69q53 130 206.5 260.5t281.5 143.5q15 2 28 2q51 0 81 -28q31 -30 31 -84q0 -9 -1 -19q-3 -40 -13.5 -89.5t-18.5 -77t-28.5 -91t-23.5 -74.5q51 49 146 160t122 137q9 -19 9 -36q0 -27 -23 -50q-31 -31 -129 -138.5t-141 -152.5 q-53 -176 -62 -258q-4 -25 -4 -47q0 -51 20 -87q24 -43 69 -43q8 0 16 1q87 14 215 158q108 128 207 254q1 1 6 8t8.5 10.5t10.5 8.5t16.5 7.5t21.5 3.5q-29 -45 -53 -80.5t-53.5 -74t-44.5 -56.5t-58 -70.5t-61 -74.5q-85 -101 -193 -141q-46 -16 -84 -16q-20 0 -37 4 q-51 13 -76.5 57.5t-33.5 113.5q-3 25 -3 53q0 48 9 103q-24 -21 -51.5 -52t-64 -75.5t-50.5 -60.5q-3 -3 -8.5 -9.5t-9 -10t-8 -6.5t-9.5 -1.5t-10 6.5q-7 4 -7.5 21.5t5.5 27.5q180 200 231 256q24 82 93 245t79 216q2 11 2 20q0 44 -43 44q-57 0 -143 -68 q-132 -103 -190 -274q-2 -9 -12 -49t-17 -62q-14 -43 -43 -53q-8 -3 -17 -3q-22 0 -47 19q-36 23 -53 68z" />
<glyph unicode="y" horiz-adv-x="1406" d="M-206 -664q2 76 69 156q40 49 104.5 100.5t128 92t154 88.5t150.5 76.5t151.5 71.5t124.5 59q72 38 106 102q97 231 97 426v12q-1 59 -23 90t-54 35q-7 1 -16 1q-25 0 -56 -9q-41 -12 -74.5 -30.5t-65.5 -41.5q-160 -112 -256 -176q-40 -26 -79.5 -46.5t-90.5 -36.5 q-43 -13 -78 -13q-5 0 -10 1q-39 2 -67.5 34.5t-31.5 97.5q-1 14 -1 27q0 90 36 172q40 94 117 192q41 51 104 51q10 0 21 -1q60 -7 87 -48q12 -19 12 -37q0 -31 -34 -61q-89 -92 -139 -206q-26 -59 -26 -92q0 -26 16 -35q8 -5 19 -5q44 0 139 72q20 13 135.5 97t179.5 120 q101 52 179 52q22 0 41 -4q91 -18 144.5 -96t72.5 -184q10 -58 10 -117q0 -50 -7 -100q238 166 353 264q7 -9 8 -16.5t-0.5 -10.5t-8.5 -9.5t-8 -8.5q-39 -45 -126 -108t-156.5 -114.5t-81.5 -80.5q-124 -293 -321 -529.5t-441 -359.5q-139 -67 -278 -75h-21q-93 0 -149 41 q-60 43 -60 115q0 3 1 5zM-152 -682q8 -44 54 -47h13q42 0 91 16q56 19 107 51q197 121 358 280t258 337q-8 -4 -87 -39t-104.5 -47t-102.5 -48t-114 -56.5t-104 -56t-106 -62.5t-87 -61t-81 -67t-56 -65q-40 -79 -40 -122q0 -7 1 -13z" />
<glyph unicode="z" horiz-adv-x="991" d="M-344 -640q2 51 29.5 109.5t67.5 108.5t83 88q97 81 226 157.5t268.5 153t230.5 140.5q-14 24 -35 48t-33.5 35.5t-45 38.5t-39.5 33q-47 40 -53 78q-1 6 -1 11q0 34 29 79q20 30 63 84t52 66q44 60 55.5 94.5t-7.5 42.5t-53 0t-83 -31q-205 -92 -324 -237 q-26 -26 -49 -26q-7 0 -14 3q-31 13 -44 38.5t-10.5 52t15.5 53.5q59 129 187 216.5t269 108.5q19 3 37 3q45 0 93 -17q67 -24 103 -78q20 -30 20 -63q0 -26 -13 -54q-23 -49 -69.5 -98t-101 -100t-83.5 -90q-18 -23 -20 -42t10 -34t31 -28.5t44.5 -28.5t49.5 -30.5 t47 -37.5t37 -47q141 80 360 299q26 21 39 0q4 -8 1 -20t-9 -17q-19 -21 -41.5 -43t-41 -39.5t-47.5 -42t-44 -37.5t-49 -40t-45 -35.5t-48 -38t-43 -33.5q22 -68 22 -137q0 -20 -2 -40q-8 -90 -53 -177.5t-110.5 -167.5t-151.5 -148t-176.5 -118.5t-185.5 -79.5t-178 -29 q-86 13 -127 53q-39 38 -39 85v6zM-294 -657q2 -33 34 -52q27 -15 71 -15q12 0 25 1q120 7 262 89t254 196q114 114 182 250q54 108 54 198q0 23 -4 45q-82 -54 -231 -131t-280 -151.5t-212 -145.5q-38 -34 -81 -94.5t-63 -114.5q-12 -38 -12 -68q1 -4 1 -7z" />
<glyph unicode="|" horiz-adv-x="516" d="M-2 10q3 30 12.5 67t24.5 82.5t20 65.5q14 50 65 228t78.5 270.5t74 246t92 285.5t92.5 256q14 40 42 47.5t47 -13.5t11 -52q-7 -26 -20.5 -87t-22.5 -93q-48 -174 -125 -444t-136.5 -483.5t-107.5 -399.5q-10 -37 -36 -56.5t-51.5 -18t-44.5 27.5t-15 71z" />
<glyph unicode="&#xad;" d="M63 500q-1 26 18.5 40.5t55.5 14.5q83 4 170.5 5t186 0.5t151.5 0.5h8h9.5t9 -0.5t9 -1.5t8 -2.5t8 -4t6.5 -6t6 -9t4 -11.5q2 -26 -14 -42.5t-44 -16.5q-101 1 -280 -1.5t-248 -2.5q-2 0 -12.5 -0.5t-15 0t-13 2.5t-12.5 5.5t-7.5 11t-3.5 18.5z" />
<glyph unicode="&#x2000;" horiz-adv-x="854" />
<glyph unicode="&#x2001;" horiz-adv-x="1708" />
<glyph unicode="&#x2002;" horiz-adv-x="854" />
<glyph unicode="&#x2003;" horiz-adv-x="1708" />
<glyph unicode="&#x2004;" horiz-adv-x="569" />
<glyph unicode="&#x2005;" horiz-adv-x="427" />
<glyph unicode="&#x2006;" horiz-adv-x="284" />
<glyph unicode="&#x2007;" horiz-adv-x="284" />
<glyph unicode="&#x2008;" horiz-adv-x="213" />
<glyph unicode="&#x2009;" horiz-adv-x="341" />
<glyph unicode="&#x200a;" horiz-adv-x="94" />
<glyph unicode="&#x2010;" d="M63 500q-1 26 18.5 40.5t55.5 14.5q83 4 170.5 5t186 0.5t151.5 0.5h8h9.5t9 -0.5t9 -1.5t8 -2.5t8 -4t6.5 -6t6 -9t4 -11.5q2 -26 -14 -42.5t-44 -16.5q-101 1 -280 -1.5t-248 -2.5q-2 0 -12.5 -0.5t-15 0t-13 2.5t-12.5 5.5t-7.5 11t-3.5 18.5z" />
<glyph unicode="&#x2011;" d="M63 500q-1 26 18.5 40.5t55.5 14.5q83 4 170.5 5t186 0.5t151.5 0.5h8h9.5t9 -0.5t9 -1.5t8 -2.5t8 -4t6.5 -6t6 -9t4 -11.5q2 -26 -14 -42.5t-44 -16.5q-101 1 -280 -1.5t-248 -2.5q-2 0 -12.5 -0.5t-15 0t-13 2.5t-12.5 5.5t-7.5 11t-3.5 18.5z" />
<glyph unicode="&#x2012;" d="M63 500q-1 26 18.5 40.5t55.5 14.5q83 4 170.5 5t186 0.5t151.5 0.5h8h9.5t9 -0.5t9 -1.5t8 -2.5t8 -4t6.5 -6t6 -9t4 -11.5q2 -26 -14 -42.5t-44 -16.5q-101 1 -280 -1.5t-248 -2.5q-2 0 -12.5 -0.5t-15 0t-13 2.5t-12.5 5.5t-7.5 11t-3.5 18.5z" />
<glyph unicode="&#x2013;" horiz-adv-x="1236" d="M62 500q-1 26 29.5 40.5t87.5 14.5q130 4 268 5t293 0.5t239 0.5h12h15t14.5 -0.5t14 -1.5t12.5 -2.5t13 -4t10 -6t9.5 -9t6.5 -11.5q3 -26 -22.5 -42.5t-69.5 -16.5q-159 1 -440.5 -1.5t-390.5 -2.5q-3 0 -19.5 -0.5t-24 0t-20.5 2.5t-19.5 5.5t-12 11t-5.5 18.5z" />
<glyph unicode="&#x2014;" horiz-adv-x="2259" d="M62 500q-3 26 58.5 40.5t174.5 14.5q262 4 537.5 5t585.5 0.5t477 0.5h25h30t28.5 -0.5t28.5 -1.5t25 -2.5t25 -4t20.5 -6t19 -9t12.5 -11.5q7 -26 -43.5 -42.5t-138.5 -16.5q-318 1 -882 -1.5t-781 -2.5q-7 0 -40 -0.5t-47 0t-41 2.5t-39.5 5.5t-23.5 11t-11 18.5z" />
<glyph unicode="&#x202f;" horiz-adv-x="341" />
<glyph unicode="&#x205f;" horiz-adv-x="427" />
<glyph unicode="&#x25fc;" horiz-adv-x="1013" d="M0 0v1014h1014v-1014h-1014z" />
</font>
</defs>
</svg>
